<svg id="Background" xmlns="http://www.w3.org/2000/svg" xmlns:xlink="http://www.w3.org/1999/xlink" viewBox="0 0 2390 1373" preserveAspectRatio="none"><defs><style>.cls-1{fill:url(#linear-gradient);}.cls-2{opacity:0.2;}.cls-3{fill:url(#linear-gradient-2);}.cls-4{fill:url(#linear-gradient-3);}.cls-5{fill:url(#linear-gradient-4);}.cls-6{fill:url(#linear-gradient-5);}.cls-7{fill:url(#linear-gradient-6);}.cls-8{fill:url(#linear-gradient-7);}.cls-9{fill:url(#linear-gradient-8);}.cls-10{fill:url(#linear-gradient-9);}.cls-11{fill:url(#linear-gradient-10);}.cls-12{fill:url(#linear-gradient-11);}.cls-13{fill:url(#linear-gradient-12);}.cls-14{fill:#1785bb;}.cls-15{fill:url(#linear-gradient-13);}.cls-16{fill:url(#linear-gradient-14);}.cls-17{fill:url(#linear-gradient-15);}.cls-18{fill:url(#linear-gradient-16);}.cls-19{fill:#01a6e6;}.cls-20{fill:#a2dbf9;}.cls-21{fill:url(#linear-gradient-17);}.cls-22{fill:#0685bc;}.cls-23{fill:#6ec6ec;}.cls-24{fill:#1394cd;}.cls-25{fill:#07ace4;}.cls-26{fill:#3fc1f5;}</style><linearGradient id="linear-gradient" x1="-363.04" y1="-299.08" x2="1384.2" y2="806.97" gradientUnits="userSpaceOnUse"><stop offset="0.03" stop-color="#0381b4"/><stop offset="0.31" stop-color="#2998c6"/><stop offset="0.94" stop-color="#8ad3f3"/><stop offset="1" stop-color="#94d9f8"/></linearGradient><linearGradient id="linear-gradient-2" x1="625.13" y1="574.57" x2="625.13" y2="701.68" gradientUnits="userSpaceOnUse"><stop offset="0" stop-color="#94d9f8"/><stop offset="1" stop-color="#94d9f8"/></linearGradient><linearGradient id="linear-gradient-3" x1="645.26" y1="454.58" x2="645.26" y2="664.15" xlink:href="#linear-gradient-2"/><linearGradient id="linear-gradient-4" x1="597.26" y1="324.82" x2="597.26" y2="614.22" xlink:href="#linear-gradient-2"/><linearGradient id="linear-gradient-5" x1="542.31" y1="237.98" x2="542.31" y2="554.2" xlink:href="#linear-gradient-2"/><linearGradient id="linear-gradient-6" x1="506.7" y1="141.84" x2="506.7" y2="500.25" xlink:href="#linear-gradient-2"/><linearGradient id="linear-gradient-7" x1="471.09" y1="28.65" x2="471.09" y2="424.39" xlink:href="#linear-gradient-2"/><linearGradient id="linear-gradient-8" x1="341.84" y1="-0.48" x2="341.84" y2="352.41" xlink:href="#linear-gradient-2"/><linearGradient id="linear-gradient-9" x1="201.14" y1="-0.48" x2="201.14" y2="263.59" xlink:href="#linear-gradient-2"/><linearGradient id="linear-gradient-10" x1="102.06" y1="-0.48" x2="102.06" y2="155.53" xlink:href="#linear-gradient-2"/><linearGradient id="linear-gradient-11" x1="-0.31" y1="1190.08" x2="1684.35" y2="1190.08" gradientUnits="userSpaceOnUse"><stop offset="0" stop-color="#088ed5"/><stop offset="0.3" stop-color="#0a93d8"/><stop offset="0.65" stop-color="#11a2df"/><stop offset="1" stop-color="#1ab7ea"/></linearGradient><linearGradient id="linear-gradient-12" x1="-0.31" y1="1124" x2="2390" y2="1124" gradientUnits="userSpaceOnUse"><stop offset="0" stop-color="#088ed5"/><stop offset="1" stop-color="#1ab7ea"/></linearGradient><linearGradient id="linear-gradient-13" x1="-0.31" y1="1066.92" y2="1066.92" xlink:href="#linear-gradient-12"/><linearGradient id="linear-gradient-14" x1="-0.31" y1="852.35" y2="852.35" xlink:href="#linear-gradient-12"/><linearGradient id="linear-gradient-15" x1="-0.31" y1="763.48" x2="2390" y2="763.48" gradientUnits="userSpaceOnUse"><stop offset="0" stop-color="#03b8ef"/><stop offset="1" stop-color="#a2dbf9"/></linearGradient><linearGradient id="linear-gradient-16" x1="-0.31" y1="763.47" x2="2390" y2="763.47" gradientUnits="userSpaceOnUse"><stop offset="0" stop-color="#1785bb"/><stop offset="1" stop-color="#1785bb"/></linearGradient><linearGradient id="linear-gradient-17" x1="-0.31" y1="747.53" x2="2390" y2="747.53" gradientUnits="userSpaceOnUse"><stop offset="0" stop-color="#075899"/><stop offset="1" stop-color="#1d97c8"/></linearGradient></defs><rect id="Gradient" class="cls-1" x="-0.31" y="1.21" width="2390.31" height="1371.79"/><g id="Shine" class="cls-2"><path class="cls-3" d="M-.31,701.68a1.67,1.67,0,0,1-1.58-1.11,1.68,1.68,0,0,1,1-2.17c92.18-34.11,245.82-80.1,454.36-105.46,255.56-31.08,523.84-22.68,797.4,25a1.69,1.69,0,0,1-.58,3.33C616.34,510.82,164.93,640.63.27,701.57A1.7,1.7,0,0,1-.31,701.68Z"/><path class="cls-4" d="M-.31,664.15a1.68,1.68,0,0,1-1.53-1A1.69,1.69,0,0,1-1,660.92C69.4,628.47,220.39,567,440.33,519.77c266.69-57.24,552.87-76.93,850.6-58.49a1.69,1.69,0,0,1,1.58,1.79,1.67,1.67,0,0,1-1.79,1.58C608.29,422.4,161,590,.39,664A1.56,1.56,0,0,1-.31,664.15Z"/><path class="cls-5" d="M-.31,614.22a1.69,1.69,0,0,1-1.46-.85,1.69,1.69,0,0,1,.62-2.31C75.5,566.91,207.57,502.19,401.48,444.6c239.42-71.12,506.33-111.41,793.31-119.78a1.72,1.72,0,0,1,1.74,1.64,1.69,1.69,0,0,1-1.64,1.74C531.17,347.54,138.53,534.51.53,614A1.61,1.61,0,0,1-.31,614.22Z"/><path class="cls-6" d="M-.31,554.2a1.69,1.69,0,0,1-1.43-.79,1.69,1.69,0,0,1,.53-2.33C140.91,461.43,531.23,251.45,1084.88,238a1.69,1.69,0,0,1,.08,3.38C532.15,254.81,142.47,464.44.59,553.94A1.65,1.65,0,0,1-.31,554.2Z"/><path class="cls-7" d="M-.31,500.25a1.7,1.7,0,0,1-1.39-.73,1.69,1.69,0,0,1,.43-2.35c60.69-41.92,188.8-123.34,364.85-197.63,213.33-90,432-143.06,650-157.69a1.69,1.69,0,1,1,.23,3.37C514.37,178.74,138.9,404.46.65,500A1.72,1.72,0,0,1-.31,500.25Z"/><path class="cls-8" d="M-.31,424.39a1.69,1.69,0,0,1-1.35-.67,1.7,1.7,0,0,1,.33-2.37C58.4,376.07,162.28,306.9,318,234.55,500.41,149.74,710.42,80.48,942.13,28.69a1.69,1.69,0,0,1,.74,3.3C418.5,149.19,127.5,327.93.71,424.05A1.71,1.71,0,0,1-.31,424.39Z"/><path class="cls-9" d="M-.31,352.41a1.69,1.69,0,0,1-1.31-.62,1.7,1.7,0,0,1,.24-2.38A1941.06,1941.06,0,0,1,267,165.44C406.09,86.52,546.26,30.71,683.61-.44a1.69,1.69,0,0,1,.74,3.3C374.38,73.15,123,251.8.76,352A1.67,1.67,0,0,1-.31,352.41Z"/><path class="cls-10" d="M-.31,263.59a1.68,1.68,0,0,1-1.21-.51,1.69,1.69,0,0,1,0-2.39C74,187.34,205.31,82.52,401.94-.35a1.69,1.69,0,1,1,1.31,3.12C207.1,85.44,76.17,190,.86,263.11A1.66,1.66,0,0,1-.31,263.59Z"/><path class="cls-11" d="M-.31,155.53A1.68,1.68,0,0,1-1.5,155a1.7,1.7,0,0,1,0-2.39C57.92,93,126.93,41.55,203.62-.27a1.68,1.68,0,0,1,2.29.67,1.69,1.69,0,0,1-.67,2.3C128.83,44.36,60.08,95.61.88,155A1.68,1.68,0,0,1-.31,155.53Z"/></g><g id="Wave"><path class="cls-12" d="M1683.93,1373H-.31V1067.62H.53c1.63,0,3.28,0,4.94.08,1.88.06,3.77.15,5.67.25h0c13.45.74,27.38,2.47,40.13,1.82,41.29-2.06,212.61-57.88,262.15-62s474.76,14.47,528.43,29c0,0,156.87,57.88,559.39,175.73C1684.29,1295.28,1686.66,1334.2,1683.93,1373Z"/><path class="cls-13" d="M2390,1250v123H1430.45C941.87,1059.61,516.94,1032,239.2,1066.87l-.22,0c-99.39,12.49-179.91,33-237.75,51.2l-.07-5-.57-41.26,0-1.55-.06-4.19-.82-59.15c1.83-.95,3.68-1.88,5.53-2.81l.12,0C29.56,992,55.91,982,82.25,972.59c92.89-33.08,161-62,260.09-82.69s326.14-14.47,458.24-12.41,516.05,93,703.89,144.72,582.09,159.2,656.4,163.34c26.28,1.46,82,15.6,145.51,35.82l.19.05.24.08C2333.7,1230.07,2362,1239.73,2390,1250Z"/><path class="cls-14" d="M987.46,1157.37c-138.8-47.64-281-78.49-422.67-91.67-56-5.22-109-7.43-158.57-7.43a1605.71,1605.71,0,0,0-167,8.6l-.22,0c-111.16,11.65-193,32.53-237.82,46.19l-1.47.44v5.89c78.81-24.33,282.88-74.34,564.59-48.1,295.41,27.5,583,129,855.52,301.69h10.48C1287.43,1281.73,1138.63,1209.27,987.46,1157.37ZM2161,1182.73c-52.06-2.9-272.72-57.82-655.82-163.23-179.76-49.47-571-142.73-704.58-144.83-12.16-.19-25.11-.42-38.7-.65-131.36-2.28-329.89-5.73-420.16,13.12-79.33,16.55-138.45,38.24-206.93,63.36-17.12,6.28-34.83,12.78-53.54,19.43-6,2.15-12.28,4.3-18.9,6.58-20.6,7.1-43.6,15-62.71,24v6.25c1.81-.87,3.66-1.74,5.53-2.6l.12,0c18.17-8.22,39.58-15.59,58.88-22.24,6.64-2.27,12.9-4.44,19-6.59,18.72-6.67,36.45-13.18,53.59-19.47,68.26-25,127.21-46.66,206.14-63.12,89.66-18.72,287.8-15.28,418.92-13l38.7.66c133.09,2.08,523.66,95.22,703.18,144.62,388.89,107,603.79,160.47,657,163.44,24.45,1.35,81.45,14,145.66,33l.19.05.24.08c27.1,8,55.46,17.14,83.19,27v-6C2296.42,1209.38,2196,1184.68,2161,1182.73Z"/><path class="cls-15" d="M2390,783.07v587C2038.86,1340,1681.46,1207,1320.76,1076,609.29,817.58,159.4,987.59,5.47,1067.69c-1.67.87-3.31,1.73-4.9,2.58l-.88.46V924.32l64.53-22.57,282.25-98.69S792.33,767.92,810.9,770s404.59,10.34,404.59,10.34l644,188.14L2260,945.72l93.5-154.44,1.51-2.49,1.51-2.49,9-14.92,3.15-5.2,1.49-2.45,10.19,9.93Z"/><path class="cls-14" d="M2371.87,761.5h0l-2.63-1.7-1.17,1.93-1.49,2.47h0l-3.14,5.18-9,14.83-1.51,2.49-.37.62-1.14,1.87L2258.31,943l-398.48,22.63-643.56-188-.36-.1h-.37c-3.86-.08-386.08-8.3-404.32-10.33-18.62-2.06-446.76,31.63-465,33.07l-.36,0L82.1,892.52l-18.72,6.55L-.31,919.22v5.91L50.62,909l14.53-4.6,281.91-98.57c154.21-12.16,449.08-34.64,463.52-33.07,18.37,2.05,384.08,9.92,404.48,10.36l643.66,188,.46.13,400.93-22.76,1.49-.09,93.9-155.12,1.5-2.47.37-.62,1.13-1.87,9.07-15,3.19-5.27,0,0,.25-.4,9.29,6,9.68,6.24v-6.7ZM1321.71,1073.31C1069.3,981.65,827.36,935.49,600.3,935.49q-74.34,0-146.52,6.6c-97.9,9-191.68,27.16-278.74,54.08-77.81,24.05-135.87,50.81-170.85,69-.3.15-2,1.09-3.67,1.87l-.83.38v5.93c.3-.1.62-.21.92-.33a58,58,0,0,0,6.16-2.85c1.44-.74,2.89-1.5,4.37-2.25h0c97.34-49.94,295.17-127,587.81-127,197.64,0,438.57,35.2,720.83,137.7C1674,1207.23,2040,1340.19,2390,1372v-5.66C2040.92,1334.51,1675.36,1201.74,1321.71,1073.31Z"/><path class="cls-16" d="M2390,783.07V895.81c-.17.62-.33,1.23-.5,1.84A317,317,0,0,1,2373,944.48c-90.66,202.79-357.71,165.87-568.7,104.42-103.07-30-192.76-65.86-242-82.51-491.1-166-784.39-148.86-1011.59-130.49-228.35,18.46-419.11,85.18-551,146V761.54C95.61,729.2,735.05,531,1444.6,734.84c0,0,264.22,72.35,381.88,105.43s211.57,46.53,254.92,41.35,118.69-15.5,132.11-100.27-37.15-115.77-42.32-128.18-11.35-56.86,23.75-43.41,110.43,91,110.43,91l62.69,61,2.07,2,10.19,9.93Z"/><path class="cls-14" d="M2389.5,897.65c-27.67,69.47-73.56,120.11-136.68,150.71-191.8,93-498.32-16.52-645.63-69.14-17-6.08-31.65-11.32-44-15.5-219.52-74.19-417.55-118.2-605.41-134.52-61.25-5.31-118-7.4-171.31-7.4-85.84,0-162.93,5.39-236,11.29-104.15,8.42-210.52,28-316.17,58.34a1712.24,1712.24,0,0,0-234.59,86v6.18C103,936.6,306.34,858.47,550.9,838.71c200.78-16.23,504.19-40.77,1010.46,130.35,12.33,4.17,27,9.4,43.94,15.47,51,18.23,121.11,43.26,199,64.37,84.52,22.93,178.2,41.24,266.71,41.24,66.38,0,129.84-10.31,184.3-36.71,50-24.23,89.37-60.73,117.69-109A318.5,318.5,0,0,0,2390,911V896.38C2389.83,896.81,2389.66,897.22,2389.5,897.65Zm-17.41-135.93-.22-.22h0l-64.48-62.74c-3.09-3.19-76.18-78.14-111.44-91.63-11.09-4.25-19.53-3.49-25.08,2.24-10.44,10.77-5.91,36.12-2.27,44.88,1.25,3,4.27,6.37,8.45,11.06,15.43,17.3,44.15,49.51,33.69,115.6-13.31,84-89,93.06-129.67,97.92-46.35,5.52-143.61-10.28-253.81-41.27-116.33-32.7-379.26-104.72-381.87-105.43q-7.65-2.19-15.33-4.34t-15.38-4.24q-7.71-2.09-15.44-4.13-7-1.84-14-3.65C1240,678.45,1087.76,655,931.91,646c-145.26-8.41-294.68-4.38-444.12,12C239.27,685.09,60.35,738.33-.31,758.2v5.95C39,751.27,160.75,714,336,685.14l.73-.12c125.64-20.66,278.7-37,448.52-37,179.54,0,377.85,18.28,582.2,69.07l9.78,2.46,10,2.55,13.17,3.45q21.69,5.75,43.49,12c2.64.72,265.56,72.73,381.86,105.44,4.5,1.26,9,2.51,13.44,3.72l8.89,2.4,4.42,1.17c4.42,1.17,8.8,2.3,13.16,3.42q4.35,1.11,8.67,2.18l8.59,2.12c2.85.69,5.68,1.38,8.51,2s5.61,1.32,8.4,2q8.37,1.93,16.54,3.72l8.12,1.75,4,.85,7.94,1.63q3.94.79,7.84,1.55c2.59.51,5.16,1,7.71,1.48,1.27.25,2.54.49,3.82.71,2.52.46,5,.93,7.51,1.36q5.61,1,11,1.9c2.41.39,4.81.79,7.18,1.16,14.24,2.24,27.6,4,40,5.23l6.09.57,3,.26q3,.24,5.82.44c18,1.26,33.32,1.23,45.32-.2,19.1-2.28,51.06-6.09,78.27-20.6,31.38-16.73,50.32-44.33,56.29-82,10.87-68.73-20.15-103.52-35.06-120.24-3.67-4.11-6.56-7.37-7.44-9.46-3.72-8.94-6.7-30.74,1.11-38.8,3.83-4,10.25-4.27,19-.9,34.11,13.05,108.67,89.52,109.48,90.35l63.15,61.46h0l1.67,1.62.4.36,2.14,1.89L2390,785.15v-7.53Z"/><path class="cls-17" d="M2390,783.07v41c-9.41-9.33-21.19-21.12-33-33.18-.69-.69-1.37-1.37-2-2.07l-2-2.09c-13.55-13.88-26.79-27.78-36.2-38.43-64-72.36-139.34-130.24-103.21-81.67s65.84,134.08,10.23,194.35c-63,68.23-180.52,74.44-345.65,32-65.43-16.8-310.9-99.87-629-152.7l-1.15-.19c-241.5-40-524.75-62.6-802.82-25.49h0C292.48,735,141.43,773.3-.31,836.59V761.54C95.61,729.2,735.05,531,1444.6,734.84c0,0,264.22,72.35,381.88,105.43s211.57,46.53,254.92,41.35,118.69-15.5,132.11-100.27-37.15-115.77-42.32-128.18-11.35-56.86,23.75-43.41,110.43,91,110.43,91l62.69,61,2.07,2,10.19,9.93Z"/><path class="cls-18" d="M2383.17,812c-8.29-7.75-17.61-16.48-24.67-23.59l-1.53-1.55-.5-.52-2-2.09c-15.44-15.82-27.41-28.53-35.6-37.81a826.08,826.08,0,0,0-72.9-72.74,314.87,314.87,0,0,0-26.87-21.35c-10.41-7.09-14-7.32-16.26-5.51-3.45,2.82-1.25,8.44,8.45,21.48,30.9,41.57,67.87,128.51,10.42,190.76-59.86,64.87-172,75.08-342.89,31.23-12.39-3.18-31.73-8.83-56.21-16-101.81-29.71-314.47-91.78-573.48-134l-1.15-.19c-59.85-9.74-122.17-18.42-186.15-25.39q-167.86-18.3-322.33-18.28-154.11,0-294.34,18.18h0C281.79,735.79,133,775.44-.31,833.48v6.13C208.92,748.08,454.36,702.33,734.4,702.33c318.37,0,681.46,59.15,1086.6,177.38,24.53,7.16,43.91,12.81,56.39,16,69.52,17.86,129.49,26.79,180.35,26.79,75.77,0,131.33-19.84,168.07-59.64,25.4-27.53,35.78-63.45,30-103.87-4.51-31.64-19.1-65.92-40-94.08-5.3-7.13-7.42-10.95-8.27-12.91,4.79,2,17,10.22,37.43,28.25a833,833,0,0,1,69.7,69.88c8.43,9.55,20.8,22.68,36.79,39.05l1.54,1.57.5.52,2.05,2.05c7,7,15.89,15.32,23.83,22.76,3.78,3.55,7.45,7,10.67,10v-7.76C2387.82,816.31,2385.52,814.16,2383.17,812Zm-11.08-50.24-.22-.22h0l-64.48-62.74c-3.09-3.19-76.18-78.14-111.44-91.63-11.09-4.25-19.53-3.49-25.08,2.24-10.44,10.77-5.91,36.12-2.27,44.88,1.25,3,4.27,6.37,8.45,11.06,15.43,17.3,44.15,49.51,33.69,115.6-13.31,84-89,93.06-129.67,97.92-46.35,5.52-143.61-10.28-253.81-41.27-116.33-32.7-379.26-104.72-381.87-105.43q-7.65-2.19-15.33-4.34t-15.38-4.24q-7.71-2.09-15.44-4.13-7-1.84-14-3.65c-145.28-37.29-297.62-60.59-453.73-69.41-145.47-8.19-295.22-3.9-445.08,12.77C242.09,686.32,63.41,739-.31,759.7v5.92c52.75-17.3,172.06-52.85,336.32-80.48l.73-.12c259.81-43.63,631.84-67.36,1030.72,32.06l9.78,2.46,10,2.55,13.17,3.45q21.69,5.75,43.49,12c2.64.72,265.56,72.73,381.86,105.44,4.5,1.26,9,2.51,13.44,3.72l8.89,2.4,4.42,1.17c4.42,1.17,8.8,2.3,13.16,3.42q4.35,1.11,8.67,2.18l8.59,2.12c2.85.69,5.68,1.38,8.51,2s5.61,1.32,8.4,2q8.37,1.93,16.54,3.72l8.12,1.75,4,.85,7.94,1.63q3.94.79,7.84,1.55c2.59.51,5.16,1,7.71,1.48,1.27.25,2.54.49,3.82.71,2.52.46,5,.93,7.51,1.36q5.61,1,11,1.9c2.41.39,4.81.79,7.18,1.16,14.24,2.24,27.6,4,40,5.23l6.09.57,3,.26q3,.24,5.82.44c18,1.26,33.32,1.23,45.32-.2,19.1-2.28,51.06-6.09,78.27-20.6,31.38-16.73,50.32-44.33,56.29-82,10.87-68.73-20.15-103.52-35.06-120.24-3.67-4.11-6.56-7.37-7.44-9.46-3.72-8.94-6.7-30.74,1.11-38.8,3.83-4,10.25-4.27,19-.9,34.11,13.05,108.67,89.52,109.48,90.35l63.15,61.46h0l1.67,1.62.4.36,2.12,1.93L2390,785.52v-7.59Z"/><path class="cls-19" d="M592.1,749.31c-218,14.71-398.88,86.92-510,143.21q-9.25,4.71-17.88,9.23-7,3.69-13.6,7.26C30.32,920,13.24,930-.31,938.2V875.62C241,739.63,592.1,749.31,592.1,749.31Z"/><path class="cls-20" d="M2266.15,717.26s42.57,33.34,60.37,67.45c16.72,32-7,35.67-16.25,18.61S2300.2,751.37,2266.15,717.26Z"/><path class="cls-21" d="M2390,772.87v22.26c-6.05-5.89-13.71-13.33-22.43-21.75l-2.08-2-2.07-2c-38.49-37.1-94.58-90.3-125.14-115.17-41.81-34-77.24-42.78-41.28,16.53,35.09,57.9,44.27,111,8.25,163.33-32,46.52-114,81.67-278.15,44.46-53.43-12.12-178-48.07-332.84-94.59C1195.21,664,502.18,573.36-.31,785.13V738.58c144.23-56.3,728.36-239.25,1663.72,43.81,93.3,28.23,443.79,165.39,524.3,37.21,18.68-29.75,31.25-75.65-19.61-156.1-39.22-62,8.26-82.69,61.92-40.31,37.42,29.55,100.74,90.87,144.13,133.91C2379.81,762.7,2385.13,768,2390,772.87Z"/></g><g id="Drop"><path class="cls-22" d="M2097.66,573.57a1.26,1.26,0,0,0,1.43-1.89c-13.55-20.36-96.25-141.29-172-175.91-27.72-12.67-62.07-17.32-83.6,1.55-8.26,7.24-27.35,43.42,13.41,77C1890.62,502.1,1963.06,531.73,2097.66,573.57Z"/><path class="cls-23" d="M2069.13,554a1,1,0,0,0,1.18-1.47c-10.77-16.32-76.59-113.26-137.82-141.69-22.41-10.41-50.33-14.53-68.09.15-6.82,5.63-22.82,34.06,9.95,61.22C1901.44,494.64,1960.05,519.06,2069.13,554Z"/><path class="cls-24" d="M2026.84,528.56a.68.68,0,0,0,.8-1c-7.31-11.19-51.93-77.63-93.45-97.11-15.2-7.13-34.13-10-46.18.11-4.62,3.86-15.48,23.35,6.74,42C1913.12,487.9,1952.87,504.64,2026.84,528.56Z"/><path class="cls-25" d="M2000.74,508.41a.5.5,0,0,0,.6-.72c-5.45-8-38.72-55.76-69.66-69.76-11.32-5.12-25.43-7.16-34.4.06-3.44,2.77-11.52,16.76,5,30.13C1916,479.18,1945.63,491.21,2000.74,508.41Z"/><path class="cls-26" d="M1948.26,463c.22,0,6.24.16,2.67-2.74-8.51-6.91-16.65-15.86-30.7-21.72-9.29-3.88-15.24-1.84-19.34,1-1.58,1.07-5.91,7.67,1.7,12.9C1908.89,456.68,1922.12,459.17,1948.26,463Z"/></g></svg>