<?xml version="1.0" encoding="utf-8"?>
<!-- Generator: Adobe Illustrator 24.2.1, SVG Export Plug-In . SVG Version: 6.00 Build 0)  -->
<svg version="1.1" id="Lager_1" xmlns="http://www.w3.org/2000/svg" xmlns:xlink="http://www.w3.org/1999/xlink" x="0px" y="0px"
	 viewBox="0 0 760.8 173" style="enable-background:new 0 0 760.8 173;" xml:space="preserve">
<style type="text/css">
	.st0{enable-background:new    ;}
	.st1{fill:#FFFFFF;}
</style>
<g class="st0">
	<path class="st1" d="M85.7,64c0,7.8-2.6,15.6-7.7,23.4c-5.9,9.2-13.5,14.6-22.6,16.2c-5.1,0.9-8.9,1.4-11.3,1.4
		c0.3-0.1,0.7-0.3,1.2-0.6c-0.6-1-1.5-1.5-2.8-1.5c-0.5,0-1.4,0.3-2.8,0.9c0.8,0.8,1.5,1.2,2.1,1.2c-1.5,0-3.2-0.9-5-2.8
		c-0.9,0-1.4,0.5-1.4,1.5c0,0.2,0.1,0.5,0.3,0.9c0.1,0.4,0.1,0.8,0,1.1c-0.3,0.7-1.2,2.2-2.8,4.4c-1.2,1.6-1.8,3.3-1.8,4.9
		c0,3.2,0.7,9.9,2,20.3c0.7,0.4,1.8,1.1,3.2,2l2.8,15.3c0,1.2-3.3,5.2-9.9,11.9H9.6c-1,0-2.8-0.9-5.2-2.6c-1.3-8.8-2-14.1-2-16.1
		v-8.7c2.5-0.8,4.8-1.2,6.9-1.2v-17.3c0-1.3,0.1-3.7,0.3-7.2l0.2-2.6c0-0.4-0.7-2-2.1-4.8c-1.4-2.8-2.1-4.5-2.1-5
		c0-0.3,0.6-1.2,1.7-2.6c1.1-1.4,1.7-2.3,1.8-2.6c0.2-1,0.3-2.7,0.3-5c0-2.2-0.1-5.2-0.3-8.9l-1.5-2.3c0.4-0.8,1.5-3,3.4-6.6
		c0.1-0.2,0.2-1.1,0.2-2.6c0-5.1-0.5-10.5-1.4-16.1c-3.2-2-4.7-4.1-4.7-6.3c0-1,0.8-2.9,2.3-5.5c-1.1-5-1.7-8.3-1.7-9.8
		c0-3.2,0.9-7,2.8-11.6c1.9-0.7,5.7-1.4,11.3-2c4.6-0.5,7.9-0.8,9.8-0.8c1.2,0,3.1,0.2,5.7,0.6c2.5,0.4,4.4,0.6,5.7,0.6
		c0.6,0,1.7-0.3,3.3-0.9c1.6-0.6,2.7-0.9,3.4-0.9c1.6,0,2.9,0.5,3.7,1.4c0.2,0.9,0.7,2.1,1.5,3.5c1.4,0.5,3.4,1.4,6,2.8
		c1.9,1.8,4.6,4.1,8,6.9C79.3,40.9,85.7,52,85.7,64z M35.5,140.1c0-0.7-0.8-1.5-2.3-2.4c-0.3,1.6-2.1,3-5.5,4.1
		c-2.8,0.9-5.3,1.4-7.5,1.4c-3.3,0-6.4-0.7-9.3-2c-1.1-0.8-1.7-1.5-1.7-2c0-0.3-0.5-0.3-1.4,0c-1,0.3-1.8,0.7-2.3,1.2
		c0.4,0.4,0.7,0.9,0.8,1.4c1.4,0.9,3.9,1.8,7.3,2.6c3.5,0.8,6.2,1.2,8.1,1.2C30.9,143.7,35.5,141.9,35.5,140.1z M12.2,161v-14.5
		c-0.3-0.1-0.6-0.2-0.8-0.2c-0.5,0-1,0.2-1.4,0.6c-0.6-0.8-1.7-1.8-3.2-3.1c-0.5,1-0.8,2.5-0.8,4.6c0,6.6,0.9,10.8,2.6,12.5H12.2z
		 M49.6,19.3c-2.3,0-5.7,1.7-10.1,5.2c-0.3-0.6-0.5-1.3-0.5-2c0-0.9,0.3-2,0.8-3.4h0.3C39.9,19,39.5,19,38.9,19l-6.4-0.2
		c-3.7-0.1-9.1-0.1-16.2,0.2c-4.2,0.1-6.7,1-7.5,2.6c-1.3,2.6-2,5.8-2,9.6c0-0.4,0.7,2.7,2,9.2c2.7,0,4.2,0.2,4.7,0.6L13,41.3
		c-4.2,0.5-6.3,2.3-6.3,5.5c0,1.9,1,3.3,2.9,4c-0.1-1.9,1.1-3.5,3.7-4.7c1.9-0.9,4-1.4,6.3-1.4c0.5,0,1.3,0.2,2.3,0.6
		c1,0.4,1.8,0.6,2.3,0.6c1.5,0,2.5-1.2,3.1-3.7h-0.5l-1.1-0.9c0.7-0.7,1.1-1.2,1.1-1.5c-1,0.2-2-0.1-2.9-0.9v-3.7
		c0.5-0.5,1.3-1.2,2.3-2c2.1-0.9,4.1-1.4,6-1.4c0.5,0,1.1,0.3,1.9,0.9c0.8,0.6,1.4,0.9,1.8,0.9c0.1,0,0.4-0.2,1-0.5
		c0.6-0.4,0.9-0.4,1.1-0.2V35c-0.5,0.6-0.8,1.4-0.8,2.3c0,0.5,0.1,1.1,0.3,1.8h2.8C41.2,27.8,44.3,21.2,49.6,19.3z M44.7,79.9
		l-0.9-0.8c-0.6-0.5-1.2-0.8-1.8-0.8c-1.4,0-2.6,1-3.5,2.9c-0.4,1.3-0.9,2.6-1.4,3.8c-0.4-1-0.6-2.4-0.5-4.3
		c-1.3,0.3-4.5,0.6-9.5,0.9c-1.3,1.2-2.3,3-3.1,5.2l-1.5,4.9c-0.3-0.2-0.5-0.9-0.5-2.1c0-1.8,1.4-5.1,4.3-9.9l-1.2-1.1
		c-0.9-0.6-1.6-0.9-2.1-0.8h-2.8c0.9,1.3,1.4,3,1.4,5c0,1-0.2,2.5-0.5,4.4c-0.4,1.9-0.5,3.4-0.5,4.4c-0.9-1.5-1.3-3.9-1.2-7.2
		l0.2-6.9c-1.7,0.5-4.1,1.2-7.2,2c0,2-0.1,5.2-0.3,9.3c-0.2,4.2-0.3,7.3-0.3,9.3c1.4,0.8,3.5,2,6.1,3.5c-0.4,0.4-0.7,0.5-0.9,0.3
		c-3.1-1.2-6-2.9-8.7-4.9v2.8c0.9,2.3,1.9,3.8,3.1,4.4c6.2,3.4,10.6,5,13.2,5h4.9l0.5-0.8c0.2-0.5,0.3-1,0.3-1.4
		c0-0.6-0.7-1.1-2.1-1.6s-2.1-0.7-2.2-0.8c1.8-0.9,3.1-1.3,3.7-1.1c-4.5-2.7-6.7-5.5-6.7-8.4c0-0.6,0.1-1,0.3-1.2
		c3.2,5.3,5.6,8,7.3,8c0.7,0,1.8-0.1,3.2-0.4c1.4-0.3,2.5-0.4,3.2-0.4c-0.4-1.2-0.6-2.3-0.6-3.4c0-0.7,0.1-1.4,0.3-2
		c0.2,1.2,0.6,2.9,1.1,4.9c2.5,0,3.7,0,3.4-0.2c-0.9-6.8-1.2-11.2-0.9-13C40.7,83,42.3,80.4,44.7,79.9z M26.9,75
		c-5.7-1.4-8.5-2.1-8.3-2.1c-0.5,0-2.3,0.3-5.5,0.9c-0.9,0.5-1.9,1.1-3.1,1.8l-0.9,2l2.1,2C12.6,79,17.8,77.4,26.9,75z M23.9,141.8
		c-1.1-1.2-1.6-3.6-1.5-7c0.1-4.2,0.1-6.7,0-7.5c0,3.8-0.5,6.2-1.5,7.3c-0.8-1.5-1.2-3.1-1.2-4.6c0-13.7-0.1-20.7-0.3-21.1
		c-0.2,0.8-0.7,1.8-1.5,3.1c-0.6-0.4-0.9-1.2-0.9-2.4c-0.4,0.8-1.4,1.2-2.9,1.2c0-1.2-0.2-2.7-0.6-4.3l-1.2,0.3
		c-0.4,3.4-0.6,7.2-0.6,11.6c0,1.5-0.2,5-0.5,10.4l-0.6,10.7c3.7,2,6.9,3.1,9.8,3.1c0.4,0,1-0.1,1.8-0.4
		C22.8,142,23.5,141.8,23.9,141.8z M30,50.3c-2.8-2.5-6.2-3.8-10.4-3.8c-3.9,0-6.7,1-8.6,2.9c0.4,0,0.8,0.2,1.1,0.6
		c-0.1,2-0.2,4.1-0.2,6.3c0,5.3,0.4,10.8,1.1,16.5c2.5-0.4,5.1-0.6,7.8-0.6c2.3,0,4.7,0.2,7.2,0.5C27.7,65.4,28.4,58,30,50.3z
		 M26.9,161.4v-15H13.6c-0.1,3.6-0.2,6.2-0.2,7.8c0,3.5,0.3,5.6,0.9,6.3c0.9,1.1,3.3,1.7,7,1.7C23.6,162.2,25.4,161.9,26.9,161.4z
		 M18.4,40.1c-1.2-0.1-2.4,0.4-3.5,1.5v-3.1c-0.1,0.2-0.2,0.4-0.2,0.6C14.7,39.8,15.9,40.1,18.4,40.1z M28.8,51.6
		c-0.4,0.1-1.4,0.6-2.9,1.5c-1,3.1-1.5,5.8-1.5,8.3v4.1c0-0.4-0.5-0.6-1.4-0.6c-0.8,0-1.2,0.6-1.2,1.8l-0.8-19
		c0.2,0.6,0.7,1.4,1.4,2.4l0.3-0.9c0.2-0.6,0.6-0.9,1.2-0.9C25.5,48.3,27.1,49.4,28.8,51.6z M31.2,138.8V136l-0.9-10.3
		c-0.7-8-1.1-12.9-1.1-14.8c-2.6,0-4.3-0.3-5.2-0.8c0,1.1,0.3,1.9,0.8,2.4c0.4-0.3,0.8-0.5,1.1-0.5c0.2,0,0.4,0.1,0.5,0.2
		c-1,1-1.6,2.3-1.8,4l-0.6,5c-0.4,3.6-0.6,5.2-0.6,4.7c0,3.6,0.6,7.3,1.7,11.3c-0.7,0.7-1,1.8-0.8,3.4c0-0.8,0.4-1.2,1.2-1.2
		c0.3,0,1,0.1,2.1,0.3c0.3,0.1,0.6,0.2,0.9,0.2s0.6-0.1,0.9-0.2c-0.9-0.2-1.4-0.6-1.4-1.1c0-0.4,0.4-1,1.1-1.7
		c0.3,0.3,0.5,1.1,0.5,2.4C29.9,139.1,30.5,138.9,31.2,138.8z M37.3,91.6c-0.5,0.5-1.4,0.8-2.8,0.8h-4.1c-0.2,0.2-0.3,0.4-0.3,0.6
		c0,0.3,0.2,0.6,0.5,0.9c-0.7,0.3-1.9,0.8-3.5,1.5c-0.6-1.3-1.7-3.1-3.2-5.2c4.5-1.8,8-2.8,10.4-2.8c0.4,0,1,0.1,1.7,0.4
		c0.7,0.3,1.2,0.4,1.4,0.4V91.6z M29.4,38.6l-3.5-1.4v0.9l3.2,1.2L29.4,38.6z M27.7,124.1h-1.1v-4h1.1V124.1z M34.3,154.7v-8.3
		c-0.9,0-1.8-0.5-2.8-1.4c-2.2,0.9-3.4,4.1-3.4,9.5c0,0.6,0.1,1.5,0.4,2.6c0.3,1.1,0.4,2,0.4,2.6C32.5,158.1,34.3,156.4,34.3,154.7z
		 M33,50.6v-4c0-0.5-0.4-1.1-1.1-1.8c-0.7-0.7-1.1-1-1.1-1.1c0,1.1-0.7,2.3-2.1,3.7c1.8,1.8,2.7,3.4,2.6,4.6
		C32.3,51.1,32.8,50.6,33,50.6z M61.2,63.3c0-4.3-1.4-8.6-4.1-13c-3.1-5-6.6-7.5-10.6-7.5c-0.5,0-1.4,0.2-2.6,0.6
		c-1.2,0.4-2.1,0.6-2.6,0.6c-1.7,0-3.1-0.3-4-0.9c-1-1-2.1-2-3.2-3.1c-0.4-0.2-1.2,0-2.3,0.5c2.3,4.7,3.6,7.2,3.7,7.5
		c0,1.8-1.6,4.2-4.9,7.2v18.4c1.1,1.7,1.7,2.9,1.7,3.5c0,0.6-0.2,1.4-0.5,2.4h3.4c0.4,0,1.5-0.5,3.4-1.5c1.8-1,3-1.5,3.4-1.5
		c0.5,0,1.6,0.5,3.3,1.5c1.7,1,2.7,1.5,3.1,1.5c4.1,0,7.3-1.7,9.6-5.2C60.1,71.3,61.2,67.6,61.2,63.3z M32.7,102.8
		c0,0.2-0.2,0.7-0.7,1.5c-0.5,0.8-0.7,1.2-0.7,1.5c0.9,0,1.4,0.7,1.4,2c0.3-0.6,0.5-1.4,0.5-2.4C33.2,104.2,33,103.4,32.7,102.8z
		 M35.3,37.9v-2.4c-1.9,1-3.1,1.5-3.5,1.5L35.3,37.9z M42.2,42.1c0-0.4-0.3-1-0.8-1.7c-1,0.3-2.2,0.9-3.5,1.7H42.2z M83.2,64.3
		c0-6.8-2.9-14.2-8.6-22c-5-6.9-10.8-12.5-17.3-16.8c-2.2-0.7-5.2-1.8-8.9-3.4c0,0.4-0.5,0.8-1.4,1.1c1.6-0.3,2.9,0.4,3.7,2.1
		c-0.1,0-0.5,0.3-1.2,0.8c-0.7,0.6-1.3,0.8-1.8,0.8c-0.2,0-0.5-0.1-0.9-0.3c-0.4-0.2-0.7-0.3-0.9-0.3c-0.7,0-1.5,0.9-2.4,2.8
		c-0.9,1.9-1.3,3.3-1.3,4.2v6.4c1.4-0.7,2.7-1,3.7-0.9c-0.2,0-1-0.6-2.4-1.8v-1.7c0.3,0,1-0.6,2.1-1.7c1.5,1.5,2.9,2.5,4,2.9
		c-0.4-0.4-0.6-0.7-0.6-0.9c0.1-0.2,0.3-0.3,0.6-0.3c-0.2,1,0.7,2.2,2.8,3.4c2.1,1.3,3.2,2.3,3.3,3c-0.6,0-1.8-0.5-3.5-1.6
		c-1.7-1.1-2.8-1.6-3.2-1.6c-0.4,0-0.9,0.2-1.5,0.5l-0.9,0.5c11,4,16.5,11.9,16.5,23.9c0,7.7-2.8,13.2-8.4,16.7
		c-2.7,1.6-6.3,2.6-11,2.9c-0.9,1.5-1.3,2.9-1.2,4c13.3-3,20.7-8.2,22.2-15.6c0.1-1.8,0.4-4.4,0.9-7.7c1.2,2.4,1.8,4.1,1.8,4.9
		c0,4.7-2.7,9.1-8.2,13.3c-5.5,4.2-10.6,6.3-15.4,6.3c-0.9,0-1.6-0.2-2-0.6c0,0.6-0.1,1.5-0.4,2.8C41.1,91.5,41,92.4,41,93
		c0,0.8,0.5,2.7,1.4,5.5c1.1-0.4,3-0.6,5.7-0.6h3.5c1.4,0,2.4,0.7,2.9,2c-0.3,0.2-3.2,1.1-8.6,2.8H49c9.6,0,17.8-4.1,24.6-12.2
		C80,82.7,83.2,74,83.2,64.3z M59.8,45.7c-1.2-0.8-2.3-1.2-3.4-1.2v-2.3C57.9,42.9,59,44.1,59.8,45.7z M65.6,62.9h-1.1v-2.1h1.1
		V62.9z"/>
	<path class="st1" d="M194.2,152.4c0,2.2-2.3,4.5-7,6.7c-4.1,2-7.4,3.1-10.1,3.1c-1.7,0-3.9-0.5-6.4-1.4c-2.9-1-4.7-2.1-5.7-3.2
		c-1.2-5.2-1.8-8.9-1.8-11c0-0.4,0.2-1.1,0.5-2.1c0.4-1,0.5-1.7,0.5-2.2c0-1.5-0.4-3.8-1.1-6.9c-1-4.5-1.5-6.9-1.5-7.2
		c-1-4.9-2.7-10.4-4.9-16.4c-0.2-0.3-0.9-0.5-2.1-0.6c-0.6-0.8-1.6-2-3.1-3.5c-3.5,0.2-8.7,0.6-15.6,1.2c-0.1,0.9-0.4,2.3-0.8,4.1
		c-1,0.6-2.3,1.8-3.8,3.7c-1.7,4.2-2.6,10.8-2.6,19.7c0,1.8,0.6,3.4,1.8,4.6c0.5,0.5,1.9,1.5,4.3,2.9c-0.4,3.3-1.1,8.1-2.1,14.4
		c-2.2,1.3-5.7,3-10.4,4.9c-3.5,0.9-8.6,1.4-15.3,1.4c-1.7,0-3.2-0.1-4.3-0.2c-0.1-0.4-0.4-0.9-0.8-1.5c-3.1-0.4-4.7-0.6-4.9-0.6
		c-1.8-0.5-3.1-1.4-3.7-2.8c-1.3-2.8-2-8-2-15.8c0-1.3,0.9-2.8,2.6-4.3c2.2-1.9,3.6-3.3,4-4.1c1.9-3.8,4-11.3,6.1-22.5v-0.5
		c0-0.5-0.2-1.4-0.5-2.5c-0.4-1.2-0.5-2.1-0.5-2.7c0-0.7,0.6-1.6,1.7-2.8c1.1-1.1,1.7-1.8,1.8-2.1c2.4-6.7,3.7-12.2,3.7-16.4
		c0-0.5-0.3-1.4-0.8-2.6c-0.6-1.2-0.8-2.2-0.8-2.9c0-0.6,0.7-1.6,2-2.9l2.8-2.8c0.3-0.6,1.2-4.6,2.8-12.1c0.5-2.5,2.9-9.1,7-19.7
		c6.6-16.8,12.9-25.2,18.8-25.2c6.4,0,12.4,5.7,17.9,17c2.7,5.5,5.7,14,9,25.4c0.7,4.3,2.3,10.4,4.7,18.4c0.3,0.6,1.2,1.5,2.8,2.5
		c1.5,1.1,2.5,1.9,2.9,2.5c-0.6,1.6-0.9,3.4-0.9,5.2c0,3.8,1.3,8,4,12.5c-0.9,2.8-1.4,4-1.4,3.7c0,2,0.9,6.3,2.6,12.9
		c0.6,2.4,3.2,10.2,7.8,23.1C193.2,146.4,194.2,150.2,194.2,152.4z M103.7,152.7c0-1.4-0.1-2.8-0.3-4c-1.6,0.1-5-1.1-10.1-3.7
		c0.3,3.2,0.9,7.8,1.8,13.9c1.9,0.7,4.7,2,8.3,3.8V162c0-1,0.1-2.6,0.2-4.7C103.7,155.3,103.7,153.7,103.7,152.7z M131.7,144.7
		l-2.3-2.1c0,3.3-4.2,4.9-12.7,4.9c-3.8,0-7.8-0.7-11.9-2.1c1.4,0,3.5,0.2,6.2,0.5c2.7,0.3,4.8,0.5,6.2,0.5c5.6,0,9.1-0.9,10.6-2.8
		c-0.4-2.7-0.6-5.7-0.6-9c0-3.3,0.2-6.2,0.5-8.7c0.1-0.7,0.4-2.4,0.9-5c0.5-2,0.8-3.7,0.8-4.9h-5.5c0.8,1.5,1.2,3.9,1.2,7.2
		c0,2-0.2,4.3-0.5,6.7c-0.4-0.4-0.6-0.8-0.5-1.2v0.8c-0.1,0.5-0.5,2-1.1,4.4c0,0.3,0.2,0.7,0.6,1.2c0.4,0.5,0.6,0.8,0.6,0.9
		c-0.1,0.1-0.3,0.6-0.6,1.4c0.4,0.4,0.6,0.9,0.6,1.5v0.3c-0.6,1.1-1.7,2.7-3.2,4.7c-0.1-0.1-0.2-0.2-0.2-0.3c0,0.2,0.1-0.1,0.3-0.8
		c-0.1-0.1-0.4-0.2-0.8-0.2c-0.6,0-1,0.3-1.2,0.9c-0.4,0.9-0.7,1.4-0.8,1.5h-1.5c-0.7-1.2-1.1-2.6-1.1-4c0-0.5,0.2-2.1,0.6-4.9
		l1.7-11.3c0.5-3.5,0.8-5.4,0.8-5.8v-3.4c-0.6,0.2-1.3,0.3-2,0.3c-3.5,0-7-0.9-10.7-2.8l-7.5,26.6c0.6,0.9,1.4,2.3,2.4,4.3
		c-0.3,0.2-0.6,0.3-0.8,0.3c-0.5,0-1.2-0.6-2.2-1.8c-1-1.2-1.5-2-1.5-2.5l-2.3,1.4v2.1c2.3,1.8,5.9,3.4,10.6,4.6
		c4.2,1.1,8,1.7,11.5,1.7c2.1,0,4.9-0.5,8.4-1.5C128.8,147.3,131.1,146.1,131.7,144.7z M180.7,101.7c-1.6,0.2-4.3,1.4-8.1,3.7
		l6.3-6.3c0,0.5-0.7-3.2-2-11c-1,0.1-2,0.6-2.9,1.4c0,0.2,0,0.5,0.2,0.8c0.1,0.4,0.2,0.6,0.2,0.7c0,0.2-0.3,0.7-0.8,1.4
		c-0.7,0-1.3-0.2-1.8-0.6v2.3c0.5,1,0.8,2.2,0.8,3.7c0,1.1-0.3,1.8-0.8,2c-0.8,0-1.2,0.3-1.2,0.8c0.2,0.4,0.3,0.8,0.3,1.2
		c0,0.4-0.1,1-0.3,1.7c-1.1-0.3-1.9-0.9-2.4-1.7c-1.3-6.3-2-10.4-2-12.1c0-0.4,0.2-0.7,0.5-0.9h1.5c0.3,0.7,0.8,1.7,1.5,3.1
		c0-0.1-0.1-0.3-0.2-0.5V91c0-0.3,0.3-0.5,0.9-0.5c0.3,0,0.7,0.1,1.1,0.3l-0.2,0.6c0-0.3,0.2-0.9,0.5-1.7c3.6-1.7,5.4-3.2,5.4-4.4
		l-0.6-1.8c0,0.5-1,1-2.9,1.4c-4.3,0.9-8.6,1.4-13,1.4c-4.6,0-7.5-1-8.9-3.1c-0.3,0.7-0.5,1.5-0.5,2.4c0,0.8,0.1,1.4,0.3,1.8
		c0.6-0.1,1.2-0.2,1.7-0.2c3.4,0,5,3.1,5,9.2c0,0.5-0.2,1-0.5,1.4c0-6.2-1.9-9.3-5.7-9.3c-6.3,0-11.2,0.4-14.5,1.1
		c-0.5,0-1,0.3-1.5,1c-0.5,0.7-0.8,1-1,1.1l-0.9-0.8c0.3-0.1,0.5-0.9,0.5-2.3v-0.5c-0.1,0-0.4,0.1-0.8,0.2c-0.4,0.1-0.7,0.2-0.9,0.2
		c-0.3,0-0.5,0-0.6-0.2c0.3-0.3,1.4-0.8,3.2-1.5c1.5-0.5,2.5-1.2,2.9-2.1l-1.5-1.5c-0.6,1.2-2.8,1.8-6.4,1.8
		c-3.2,0-6.5-0.5-10.1-1.4c-4.7-1.2-7.5-2.8-8.6-4.7c-0.2,0.2-0.5,0.6-0.8,1.1c-0.3,0.5-0.6,0.9-0.8,1.1c1.1,1.1,2.8,2.9,4.9,5.4
		c-0.6-0.2-1.6-0.5-2.9-0.8c-1,4-2.3,9.9-4,17.9c-2.3,2.7-3.5,4.1-3.5,4.4c0,1.2,0.9,2.6,2.8,4c1.9,1.4,3.5,2.2,4.8,2.3
		c5.4,0.5,8.9,0.8,10.4,0.8c6.7,0,10.3-1.6,10.6-4.7c-2.4,0.3-3.8,0.5-4.1,0.5c-0.4,0-0.8-0.1-1.2-0.3c1.1-0.1,2.5-1,4.1-2.6
		c1.7-0.5,6.2-0.9,13.5-1.1c6.4-0.1,10.2-1.2,11.3-3.4c0,0.3-0.1,0.7-0.2,1.2c-0.1,0.5-0.2,0.9-0.2,1.2c0,0.4,0.1,0.8,0.3,1.2
		c1.6-0.1,2.8,0.1,3.5,0.5c0,0.4-0.2,0.7-0.5,0.8c-1.6-0.3-3.2-0.5-4.7-0.5h-1.5c1.9,1.9,4.4,2.9,7.3,2.9c3.4,0,7.1-0.8,11.2-2.3
		C177,106.7,179.8,104.5,180.7,101.7z M122.4,162.6v-12.7h-3.2c-0.7,0-1.7,0.1-3,0.2c-1.3,0.1-2.3,0.2-3,0.2c-4,0-6.7-0.3-8.3-0.9
		v13.3c3.7-0.3,7-0.5,9.9-0.5C117.6,162.2,120.1,162.3,122.4,162.6z M175.2,81.6c-1.8,0.3-2.6,0.5-2.1,0.5c-0.8,0-2.3-4.3-4.6-12.9
		l-5.7-21.9c-3.7-12-9.7-20.7-18.2-26c-1.1-0.7-2-1.1-2.8-1.1c-5.6,0-11.6,8.6-17.9,25.7C120.4,55.6,117,67,114,80
		c3.2,3,8.5,4.4,15.9,4.4c1.2,0,3.1-0.5,5.5-1.4c0.9-5.4,2.2-13.5,4-24.3c-1.5,9.2-3.1,16-4.7,20.3c-0.6,1.6-1.7,2.8-3.2,3.5
		c-0.7-0.7-1.4-1.1-2-1.1c-0.2,1-0.7,1.6-1.5,1.8l-0.5-3.5c0.8-3,2.8-9.8,5.8-20.7c0.7-2.5,1.6-5.8,2.6-9.6c1.5-4.1,3.7-6.1,6.6-6.1
		c4.5,0,7.9,6,10.1,17.9c-0.3,0.3-0.6,0.5-0.8,0.5h-0.2c-0.8-1.1-2-3.9-3.7-8.4c-1.3-3.7-3-6-5-6.9c-2.6,6.4-3.8,9.8-3.8,10.1
		c0-0.4,0.3,0.3,0.9,2.1c0.7-2.3,1.9-4.4,3.7-6.1c3,2.4,4.9,6,6,10.6c0.4,4.2,1.2,10.4,2.4,18.7c0.8,2.1,3.4,3.2,7.7,3.2
		C168.3,85.1,173.4,83.9,175.2,81.6z M130.5,93.3c0,2.2-0.9,6.4-2.6,12.5c-0.4-0.2-1.1-1.2-2-3.1c-0.4,1.1-1.1,2.8-2.1,4.9
		c-0.8-1-1.2-2.2-1.2-3.7c0-2.7,0.9-7.5,2.6-14.7c0.5,0.2,1.2,0.6,2.1,1.2c0.4-0.3,1.2-0.5,2.4-0.5
		C130.3,91.6,130.5,92.7,130.5,93.3z M131.6,146.9c-1.6,0.8-4.2,1.9-7.8,3.2v4.9c0.1,0.7,0.2,0.9,0.2,0.5v5.5
		c2.3-1.2,4.7-2.3,7.2-3.2C131.1,154.5,131.3,150.9,131.6,146.9z M127,100.8v-2.1h-1.1v2.1H127z M127.6,95.9v-2.1h-1.1v2.1H127.6z
		 M154.4,99.3c-0.2,0.7-1.3,1.7-3.2,2.9c-1.9,1.2-3.3,1.8-4.1,1.8h-13.3v-4.7c0.4-0.5,1-1.1,1.8-1.7c4-0.5,5.6-0.8,4.7-0.8h12.2
		l-1.2,1.4C152,98.4,153,98.8,154.4,99.3z M150.1,80.2c0-0.8-0.8-4.9-2.4-12.2c-1.6-7.3-2.5-11.1-2.8-11.6c-0.3-0.4-0.7-0.7-1.5-0.8
		c-3.8,12.3-5.7,20.3-5.7,23.9c0,1.1,0.4,2.6,1.2,4.3c0.8,1.7,1.3,3,1.4,3.7c2.3-0.2,5.1-0.7,8.4-1.4c0-0.7,0.2-1.7,0.6-3
		C149.9,81.9,150.1,80.9,150.1,80.2z M188.8,141.5c-5.7,2.4-10.6,3.7-14.5,3.7c-0.6,0-1.1-0.2-1.5-0.5c9-0.9,14.1-3.1,15.3-6.4
		l-8.9-30.6c-0.6,0.8-1.5,1.7-2.8,2.6c0.7,0.6,1.1,1,1.1,1.2c0,0.2-0.1,0.4-0.2,0.5c-0.7-0.7-1.6-1.1-2.8-1.1c1.1,2.9,2,5.9,2.8,9
		v-0.5c0-0.6,0.2-1.1,0.5-1.4l3.5,17.4c0,1.7-0.5,2.9-1.4,3.4c-0.7-0.9-1.4-2.2-2-4c0.4,1.2,0.6,2.3,0.6,3.2c0,1.7-1,3-3.1,3.8
		l-1.4-1.1c-3.4-11.7-5.5-21.2-6.4-28.3c-4.2,0.9-6.8,1.4-7.8,1.4c1.8,7.6,3.2,13.4,4,17.3c1.3,6.5,2.1,12.3,2.3,17.4h9.9
		c1.1,0,3-0.5,5.7-1.4c2.7-0.9,4.5-1.7,5.5-2.4C187.5,144.7,188,143.6,188.8,141.5z M190,145c-5.2,3.2-13.2,4.6-24,4.4
		c0.6,1.1,0.9,2.7,0.8,4.7h8.1c2,0,5-1.1,8.8-3.2C187.5,148.9,189.6,146.9,190,145z M169.5,145.4l-2.8-0.8v-1.1l2.8,0.8V145.4z
		 M191.1,149.5l-1.4-0.3c-8.1,4.2-15.5,6.1-22.3,5.7v2.3c3.9,1.2,5.9,1.9,6,2c2.9,0,6.2-1,10.2-3C187.4,154.1,190,151.9,191.1,149.5
		z M174.6,116.1c-0.1-1-0.6-2-1.4-2.9c-0.5,0.2-1.3,0.5-2.3,0.8l0.8,2.9L174.6,116.1z M174.1,118.9l-0.9-0.9l-0.6,0.6l0.9,0.9
		L174.1,118.9z M191.6,151.8c-1.8,2-4.3,3.8-7.4,5.4c-3.1,1.5-5.9,2.3-8.5,2.3h-0.5l4.6,0.9c1.8,0,4.3-1,7.3-3.1
		C190,155.2,191.6,153.4,191.6,151.8z M177.9,116.7h-1.1l-0.8-3.4h1.1L177.9,116.7z"/>
	<path class="st1" d="M346.4,118.3c0.1,0.9,0.2,1.8,0.2,2.8c0,6.4-2.2,11.9-6.6,16.5c-4.4,4.6-9.8,6.9-16.2,6.9
		c-1.6,0-4.7-0.9-9.2-2.6c0.1-1.4,0.2-2.6,0.2-3.5c0-1.2-0.1-2.1-0.3-2.6c-0.9-1.4-1.9-3.7-2.9-6.9c0.7-1,1.3-2.7,1.8-4.9
		c-1-6-3.1-14.2-6.3-24.6l-8-26c-0.9-1.2-2.2-3-3.8-5.4c-1.4,1.3-3.3,3.5-5.7,6.6c-0.9,2.1-1.8,5.1-2.8,8.9
		c-0.7,3.1-1.1,5.3-1.1,6.6c0,0.6,0.4,2,1.2,4.1c0.8,2.1,1.2,3.8,1.2,4.9c-1.4,0.9-3,2.6-4.7,4.9c-2,8.9-4.8,19.5-8.4,31.8
		c-0.2,0.6-1,1.4-2.5,2.4c-1.5,1-2.6,1.5-3.3,1.5c-3.7,0-8-4.4-13-13.3l-9.8-17.4c-1.5-1-3.3-2.7-5.2-4.9c-0.3-0.9,0.1-3.2,1.2-6.9
		c-1.2-2.8-3.3-9-6.1-18.7c-0.6,0-1,0.2-1.2,0.5c-1.6,5.9-2.5,11-2.6,15.1l-0.6,23l2.4,23.4c0.3,0.3,0.7,0.5,1.2,0.5
		c0.6-0.1,0.9-0.3,0.9-0.6c1.4,8.7,2.1,12.5,2.1,11.6c0,4.6-2.3,7.8-6.9,9.6c-5.4,2.1-9.6,3.2-12.7,3.2c-1.4,0-3.7-0.4-6.9-1.1
		c-4.1-0.9-6.4-1.4-7-1.5c-1-3.6-2.5-9-4.4-16.4c2.1,0,3.4-1.5,3.8-4.6c0-2.6,0.1-5,0.3-7.3c0.9-10.3,4.3-31.1,10.1-62.4
		c0-0.3,0.3-1,1-2.1c0.7-1.1,1-1.8,1-2.2c0,0.6,0.4,1.3,1.2,2.1c0.6-0.6,0.9-1.2,0.9-1.8c0-1.4-0.5-2.7-1.5-3.7
		c-0.4,0.4-0.6,0.9-0.6,1.5c0-1.6-0.1-2.3-0.2-2c0.6-0.6,1.3-1.4,2.1-2.4c3.5-9.9,5.8-16.2,6.9-19c2.8-6.3,6.3-12.1,10.6-17.3h2.8
		c2.7,3.3,4.9,8.1,6.9,14.4c2.3,7.8,4,12.8,5,15.1c0.1,0.3,1.2,1,3.4,2c1.3,0.6,2,2.1,2,4.6c0,0.5-0.5,1.8-1.5,3.8
		c-1,2-1.5,3.3-1.5,3.8c0,5.4,1.5,11.3,4.4,17.6c0.5,1.1,1.9,1.7,4.1,1.7c1.7,0,2.9-1,3.5-2.9c2.5-8,3.8-14.8,3.8-20.7
		c0-0.3-0.4-1.1-1.2-2.4c-0.8-1.3-1.2-2.2-1.2-2.8c0-0.8,0.7-2,2-3.4c1.3-1.5,2-2.3,2.1-2.5c2.3-8.3,4.9-16.6,7.7-25.1
		c0.7-2.1,2.4-4.5,5-7.2c2.7-2.7,5-4,7-4c5.1,0,12.7,11.1,22.8,33.2c1.5,1.2,3.4,3.5,5.7,6.7c0.2,0.5,0.1,1.5-0.4,3.1
		c-0.5,1.5-0.7,2.5-0.7,2.9c0,0.4,0.1,0.9,0.3,1.4c8.1,19.4,14.4,34.1,19,44.1c0.8,0.8,1.9,2,3.2,3.7
		C341.7,113.9,343.6,116.1,346.4,118.3z M234.9,144.9v-2.3c-5.3,4.1-11,6.1-17,6.1h-5.5c-1.6,0-4.4-1.4-8.4-4.3
		c-0.1,1.3,0.9,2.6,2.9,3.7c2,1.2,3.8,1.8,5.2,1.8c5.6,0,9-0.1,10.3-0.3C225.9,149,230.1,147.4,234.9,144.9z M217.4,161.4
		c-0.5-4.6-0.8-8-0.8-10.1c-2.9-0.4-6.9-1.3-12.1-2.6c0.6,4.2,1.7,7.2,3.4,9.2c1.6,1.9,4.4,3.4,8.4,4.3L217.4,161.4z M231.9,143.1
		c-1.6-8.2-2.4-14.5-2.4-19.1v-17.1L231,82l-6.1,21.4c0-9,0.4-16.5,1.2-22.6c-0.7,5.4-2.2,15.5-4.4,30.3
		c-1.9,12.6-2.9,22.2-2.8,28.6c-0.2,0.6-0.6,1.4-1.2,2.3c-0.7-2.8-1.1-5.4-1.1-8l6.7-52.8l-3.5-3.5c-0.9-0.9-1.4-2-1.4-3.4
		c0-0.9,0.1-1.2,0.3-0.9c0,0.2,0.6,0.3,1.8,0.3c-0.2,0-0.6-0.3-1.3-0.8c-0.7-0.5-1.1-0.8-1.3-0.8l-11.2,65.2v8.1c4,1.3,7.9,2,11.6,2
		C224.2,147.5,228.7,146,231.9,143.1z M231.3,159l-2-9.6c-3.3,0.4-7.1,1.1-11.5,2c0.6,2.5,0.8,5.6,0.6,9.2l-0.5,0.9h3.2
		C223.6,161,226.9,160.2,231.3,159z M254,61.2v-2.9c-0.6-0.5-2.7-0.9-6.1-1.2c0.4-0.3,0.7-0.5,0.9-0.5c-1.6-6.4-3-11.4-4.1-14.8
		c-1.7-5.4-3.8-10.1-6.1-14.2h-2.1c-3.8,5.2-6.8,10.7-9.2,16.5c-0.8,1.9-2.8,7.7-5.8,17.3c-1.1,2.2-1.7,3.5-1.7,3.8
		c0,1,1.2,2.6,3.7,4.7c-0.2,0.1-1.4,0.5-3.7,1.1c5.3,3.3,9.4,4.9,12.2,4.9c2.3,0,3.5-1.2,3.5-3.5c-2,0-3.4-0.4-4.1-1.1
		c0.2-0.2,0.5-0.3,0.8-0.2c0.4,0.3,0.9,0.5,1.4,0.5c0.3,0,1-1,2.1-3.1c1.1-2.1,1.8-3.3,2.2-3.6c0.2,0.8,0.6,2,1.1,3.7l8.1-5
		C249.6,61.9,251.9,61.1,254,61.2z M243.4,59.2c-0.5,0.1-1,0-1.4-0.5c-0.3,0.3-0.5,1.1-0.5,2.4c-1.4-1-2.4-2.8-3.1-5.4
		c-0.6-3-1.1-4.6-1.4-5l-2,1.8c0.2-0.5,0.2-1.3-0.2-2.4c-0.3-1.1-0.5-1.7-0.5-1.9c-1.5,0.4-3,2.9-4.4,7.5c-1.1,3.6-1.9,7.1-2.3,10.6
		c-0.1,0.4-0.8,1.2-2,2.4c0.6,0.6,0.9,1.5,0.9,2.8c-0.1-0.3-0.3-0.7-0.6-1.2l-1.4,1.2c1.4-12.9,4.9-22.2,10.4-28.2h3.4
		C239.3,47.1,241,52.4,243.4,59.2z M236.8,152.1c0-0.7-0.1-1.8-0.4-3.2c-0.3-1.4-0.4-2.5-0.4-3.2c-1.3,0.7-3.1,1.6-5.4,2.6
		c0.6,3.7,1.3,6.7,2,9C235.5,155.5,236.8,153.7,236.8,152.1z M237.6,72.1l-0.8-2.3l-0.8,0.3l0.6,2H237.6z M249.1,90.6
		c0,0.3-1.9-5.2-5.7-16.5c-0.2,0-0.6,0.1-1.2,0.3c-0.6,0.2-1.1,0.3-1.4,0.3c-0.9,0-1.8-0.4-2.6-1.2c1.4,5.6,3.7,13.2,6.9,22.6
		l2.3-2.9C248.5,91.8,249.1,90.9,249.1,90.6z M243,68.5l-0.3-0.8l-1.4,0.6v0.9L243,68.5z M245,66.6l-0.6-0.6l-1.5,1.5l0.6,0.6
		L245,66.6z M280.9,101.6c-0.9,3.5-2.6,9.7-5,18.8c-2.8,9.9-5.3,14.8-7.5,14.8c-1.4,0-3.4-2.4-6-7.3c1.3,0.9,3.3,3.2,6,6.7
		c0.5-1.1,1.2-2.7,2.1-4.7c-0.3-0.2-1.1-1-2.4-2.3c1.1-0.6,2.4-1.6,4-2.9c0.8-1.7,2.1-5.2,4-10.4c2-5.7,3.1-9,3.1-9.9v-3.8
		c-1.3,0.3-2.7,0.5-4,0.5c-1.5,0-3-0.2-4.4-0.6c0,0.5-0.4,1.1-1.1,1.8c-1-1-2.3-2.2-3.8-3.7c0.2,0.8-0.4,1.8-1.7,3.1
		c-0.9-1.7-2.2-4.3-3.8-7.8c0.3-0.6,0.6-1.6,0.8-3.1c-0.3-0.6-0.9-1.5-1.7-2.6c-5.8-0.4-10.7,3.2-14.5,10.7c0.3,0.5,0.9,1.2,1.8,2.1
		c4.7-6.5,8.4-9.8,11-9.8c1.5,0,2.1,0.5,1.8,1.4c-1.2,0.6-2.2,0.8-3.1,0.6l0.8,0.6c1,0.3,1.6,0.5,1.7,0.6c0,0.3-0.9,0.5-2.8,0.5
		c-0.6,0-0.9,0.2-0.9,0.5c0,0.3,0.1,0.6,0.3,0.8c-0.3-0.2-0.5-0.8-0.5-1.7c-1.4,0-3.2,1.6-5.2,4.7c1-1.1,1.8-1.5,2.4-1.2
		c4.6,8,8.9,15.1,13,21.4c0.8-1.2,2.9-5.1,6.1-11.6c0.2,0.2,0.3,0.8,0.3,1.8c0,2.3-0.7,4.9-2.1,7.7s-3,4.7-5,5.8
		c-3.3-4.4-6.5-9-9.8-13.9c0-0.6-0.6-1.5-1.8-2.5s-1.9-1.7-2-1.9c0.9,3.4,1.4,5.8,1.4,7.3c-0.8-1.2-1.9-3.1-3.2-5.5v2.1
		c2.9,5.5,6,11,9.5,16.4c5.2,8.1,8.6,12.1,10.3,12.1c2.2,0,4.9-5.8,8-17.3C279.2,111.3,280.5,105.3,280.9,101.6z M255.8,87.4
		c-2.6-8.3-4.4-16.4-5.7-24.3c-0.9,0.5-2.3,1.2-4.1,2.1c1.2,0,2.2,0.4,3.1,1.2c-0.8,0.8-2,2.1-3.7,3.8c0.4,0,0.7,0.2,0.8,0.6
		c0.2,1.8,1.4,8.2,3.7,19.1C251.5,88.9,253.5,88.1,255.8,87.4z M268.1,89.7c-0.9-1-1.4-1.7-1.4-2.1c-1.1,1.1-1.7,2.1-1.7,3.1
		c0,1,0.6,2,1.7,3.1C266.7,92.8,267.1,91.5,268.1,89.7z M279.1,67.5c-2.3-1-4.9-1.9-7.8-2.6c-2.1,11.7-3.2,18.5-3.2,20.2
		c0,5,3.4,7.6,10.3,7.8c0-0.1,0.1-0.4,0.3-1c0.2-0.6,0.3-0.9,0.2-1c-0.5,0-1.2-0.2-2-0.6c-0.1,0.2-0.2-0.9-0.2-3.4
		c0-2.3,0.4-5.7,1.1-10C278.5,72.5,279,69.4,279.1,67.5z M285.2,96.5V93c-4.9,1.2-7.2,1.8-7,1.8c-0.6,0-2.1-0.5-4.4-1.5
		c-2.3-1-3.9-1.5-4.6-1.6c0.1,1.1,0,2.3-0.3,3.5l-0.8,0.3c0.4,0.9,1.6,1.8,3.4,2.8c1.9,0.9,3.4,1.4,4.5,1.4c0.3,0,0.7-0.1,1.1-0.3
		c0.4-0.2,0.8-0.3,1.1-0.3c2.3,0,4.4-0.5,6.1-1.5C284.4,97.4,284.7,97.1,285.2,96.5z M317,59.2v-2.1c-1.5-0.9-4.4-1.9-8.6-2.9
		c0.9-0.4,2.3-0.6,4.3-0.5c-3.8-7.7-6.9-13.9-9.5-18.7c-5.3-9.9-10.1-14.8-14.4-14.8c-4.1,0-7.7,5.5-10.7,16.5l-5,17.9
		c-0.6,0.4-1.6,1.2-3.1,2.4v3.5c0.3-0.3,0.6-1.3,0.9-3.1c0.2-1.3,1.1-1.9,2.8-1.8l1.1,0.9c-0.5,1-0.8,1.8-0.8,2.4
		c0,0.4,0.1,0.7,0.3,0.9c3.5,0.2,5.8,1.5,7,4c1.6,2.2,2.8,3.4,3.5,3.4c0.4,0,0.6-0.1,0.6-0.3c0-0.2,0.2-0.3,0.6-0.3
		c1.6,0,3.1,1.2,4.3,3.7c1-2,1.5-3.4,1.5-4c0-1.4-1.3-3.4-4-6c-2.7-2.5-4-4.2-4-5c0-1.3,0.8-4.6,2.4-9.9c1.8-6,3.6-9.7,5.2-11.2
		c1.8,1.7,3.7,4.7,5.5,8.9c2,4.6,3.7,7.7,5,9.3c0.1,0.5,0.4,1.6,0.8,3.2h-2l-4.9-8c-1.8-3-3.6-4.4-5.4-4.4c0.9,3.1,1.2,5.2,0.9,6.3
		c-0.8-0.7-1.2-1.5-1.2-2.4c-0.3,1.6-1,5.3-2.1,10.9c0.1-0.2,0.4-0.6,0.9-1.1c0.5,0.3,1.2,0.8,2.1,1.5l-0.2,0.2
		c0.1,0.3,0,0.8-0.3,1.4c0.1,0.2,0.2,0.8,0.2,1.8c0.4-1.2,1.2-3.1,2.4-5.5c1.4,1.1,2.4,3,3.1,5.5c0.5-1.1,1.3-2.1,2.4-3.1l0.9,0.9
		c-1.1,1.7-1.7,3-1.7,3.7c0,0.7,0.3,1.4,0.8,2.1c2.9-2,6.7-4.9,11.6-8.6c0.6,0.6,0.8,1,0.6,1.2l-0.2,0.2c1.3,0.2,2.2,0.4,2.6,0.6
		c0.9,0.3,1.5,0.9,1.7,1.7L317,59.2z M277.1,62.1V61h-4v1.1H277.1z M287,73.1c0-0.6-0.4-1.2-1.1-1.8l-1.1-0.9
		c-1.5,6.1-3,11-4.3,14.7c-0.5-0.7-0.7-1.7-0.6-3.1c0,0.6-0.3,1.5-0.8,2.7c-0.5,1.2-0.8,2-0.8,2.5c0,0.9,0.4,1.4,1.1,1.4
		c0.3,2.4,0.4,4.1,0.3,5c1.7-0.9,2.9-1.4,3.4-1.4c-0.1-2.4,0.2-4.9,0.9-7.3C286.1,78.2,287,74.3,287,73.1z M281.1,81.2v-1.5H280v1.5
		H281.1z M336,111.8l-21.1-47.6c0,0.4-0.2,0.8-0.6,1.2c0-0.5-0.1-1.3-0.2-2.4c-0.2-1.1-0.2-1.9-0.2-2.4c-0.9,0-1.2,0.7-0.9,2
		c-0.1,0.4-0.3,0.7-0.5,0.9H310c-1.5,0-2.3-0.8-2.3-2.4c-0.9,0.9-1.8,1.4-2.8,1.4c0,0.3,0.1,0.7,0.4,1.3c0.3,0.6,0.4,1,0.4,1.3
		c0-0.6,0.6-0.9,1.7-0.9l13.9,43.5c0,0.6-0.1,1-0.3,1.2c-2.2-2.7-5.7-11.1-10.3-25.4c0.5,1.5,0.8,2.9,0.8,4c0,0.7-0.1,1.3-0.3,1.8
		c-1-1.6-2.6-5.4-4.7-11.2c-1.7-4.7-3.5-7.7-5.2-9c0,0.2-0.1,0.6-0.4,1.1c-0.3,0.5-0.4,0.9-0.4,1.1l15,51.1c2.5-3.6,5.1-6.3,7.8-8.1
		c-2,2.1-4.5,5.1-7.3,8.9l-0.9,4.1c2.4-3.6,5.5-6.8,9.2-9.8C328.6,113.9,332.5,112.1,336,111.8z M310.4,82.5v-1.5h-1.1v1.5H310.4z
		 M315.9,67.8H315l-0.6-1.4l0.8-0.3L315.9,67.8z M338.3,112.2c-4.4,0.3-8.9,2.2-13.4,5.8c-4.5,3.6-7.3,7.5-8.3,11.8
		c4-4.8,8-8.4,11.9-10.9c1.9-1.2,4.9-2.5,9-4C338,113.5,338.3,112.6,338.3,112.2z M343.3,119.8c-0.6-0.5-1.6-1.2-3.1-2.1
		c0-1.2-0.1-1.9-0.2-2h-2.4c-2.7,0-6.8,2.2-12.4,6.6c-6.1,4.8-8.8,8.7-8,11.8c1.1-3.2,4.1-6.5,9-10c4.9-3.5,9-5.3,12.4-5.3
		C341.1,118.7,342.6,119.1,343.3,119.8z M343.3,123.9c0-2.7-1.4-4-4.3-4c-3.2,0-7.4,1.9-12.7,5.7c-5.8,4.2-8.7,8.2-8.7,12.1
		c0,2.9,2.4,4.3,7.3,4.3c4.8,0,9.1-1.8,12.8-5.4C341.5,132.9,343.3,128.7,343.3,123.9z M339,127.8c-1.8,2.3-4.2,4.5-7,6.6
		c-3.3,2.3-6.2,3.7-8.7,4c-0.9-0.9-1.4-1.6-1.4-2.1c0-1.3,1.8-3.6,5.4-6.7c3.1-2.8,5.2-4.4,6.4-4.9c0.9-0.1,2.2-0.4,3.8-0.9
		c0.6,0.5,1.1,0.8,1.5,0.8V127.8z M329.9,112l-5.4,2.6v-0.9l5-2.4L329.9,112z"/>
	<path class="st1" d="M454.7,139.5c0,3.4-0.3,5.4-0.9,6c-2.9,3-6.9,5.1-12.1,6.4c-2.1,0.5-6.5,1.5-13,3.1c-3.3,0.9-9.7,2.7-19.4,5.2
		c-8.1,2.1-13,3.2-14.8,3.2c-0.3,0-0.8-0.3-1.5-0.9c-0.7-0.6-1.3-0.9-1.8-0.9c-1.8,0-4.5,0.5-8.1,1.5c-3.6,1-6.3,1.5-8.1,1.5
		c-5.2,0-8.4-5.2-9.6-15.6c-0.2-1.7-0.6-4.9-1.2-9.6c-3.6-2.4-5.4-4-5.4-4.7c0-2.5,1.8-5.8,5.5-9.8c0-2-0.7-4.6-2.1-7.6
		c-1.4-3-2.1-4.7-2.1-5c0-0.4,0.6-1.7,1.8-3.7c1.2-2.1,1.8-3.4,1.8-3.9c0-5.6-1.1-11.2-3.2-16.7c-2.3-2.7-3.5-4.4-3.5-5.4
		c0-0.4,1-1.8,2.9-4.1c0.1-0.2,0.2-1.1,0.2-2.6c0,0.5-0.3-2.8-0.8-9.9c-2.4-1.5-4-3.4-4.6-5.7c0.4-0.6,0.7-1.6,0.9-2.9
		c-1.5-4-2.3-9-2.3-15.1c0-5,0.1-8.1,0.3-9.2c0.7-3.8,2.3-6.3,4.7-7.7c3.9-2,8-3.3,12.4-3.7c45.9-3.9,66.4-5.8,61.5-5.8
		c13.5,0,20.2,6.6,20.2,19.9c0,2.3-0.4,5.7-1.2,9.9c-1,5.4-1.6,8.8-1.7,10.3c-0.7,1.3-1.5,3.2-2.3,5.7c-6.1,3-10.2,4.4-12.2,4.4
		c-2,0-4.7-0.9-8-2.8c-3.3-1.9-5.6-3.7-7-5.4c1-0.9,2.2-3,3.5-6.3c0.2-1.4,0.7-3.4,1.4-6v-1.7c-3.2-0.5-11.2-0.5-24.2,0.2
		c-9.1,0.4-16,1.5-20.7,3.2c-1.9,0.7-2.7,3.4-2.3,8c2,1.3,3.1,2.8,3.1,4.4c0,2.7-1.2,4.5-3.7,5.5c0.4,2.2,1.1,6.1,2,11.5
		c1.9,1.9,2.9,3.1,2.9,3.5c0,0.3-0.6,1.4-1.8,3.2l-2.4,3.7c-0.3,0.3,0,0.5,0.9,0.5c0.6,0,2.2-0.5,4.7-1.6c2.5-1.1,4.2-1.7,5-1.8
		c2.2-0.5,4.4-0.9,6.6-1.1l2.3-4.1c1.2-2.1,2.9-3.5,5-4c0.9-0.2,3.2-0.3,6.9-0.3c2.1,0,3.6,0.3,4.3,0.9c1.3,1.1,2.6,3.9,3.9,8.3
		c1.3,4.4,1.9,7.8,1.9,10c0,3.3-0.9,6.9-2.8,10.9c-2.4,5.2-5.4,7.8-8.9,7.8c-2,0-4.1-1-6.3-3.1c-0.2-0.2-1.9-2.2-5.2-6
		c-0.5-0.1-2.4-0.2-5.7-0.2c-1,0-2.6,0.1-4.7,0.3c-2.1,0.2-3.6,0.3-4.7,0.3l-1.1,0.9c0.8,1.2,1.9,2.1,3.2,2.6
		c0.7,0.3,1.1,1.4,1.1,3.2c0,1.1-0.6,2.5-1.8,4.1c-1.2,1.6-1.8,2.7-1.8,3.3c0,1.4,0.3,2.9,0.8,4.4c3.7,2.1,5.5,4,5.5,5.5
		c0,0.6-0.2,1.5-0.5,2.8c-0.3,1.2-0.5,2.1-0.5,2.8c0,1.6,0.8,3,2.3,4.1c0.6-0.1,1.8-0.7,3.4-1.9c1.7-1.2,2.8-1.8,3.3-1.8
		c0.6,0,2.3,1.4,5,4.1c0.4,0.1,1.7,0.2,3.8,0.2c0.3,0,7.1-0.6,20.3-1.8l1.1-0.9c-4.5-5.3-6.7-8.6-6.7-9.8c0-3.3,3.9-6.7,11.8-10.4
		c6.6-3.1,11-4.6,13-4.6c1.7,0,3,0.3,3.7,0.9c1.7,2.7,2.9,5.1,3.5,7.3C453.3,129.7,454.7,136.6,454.7,139.5z M450.4,37
		c0-12.9-5.7-19.3-17.1-19.3c-2,0-10.8,0.8-26.3,2.4C389.3,22,375.4,24,365.1,26c-6.3,1.2-9.5,7.1-9.5,17.7c0,2.8,0.5,6.9,1.4,12.5
		c0.8-0.5,2-1.2,3.5-2c-0.2,0.3-1,1.1-2.3,2.4c-1.3,1.3-2,2.3-2,2.9c0,0.9,1,2.2,2.9,4c0.1-1.8,1.2-3.3,3.4-4.3
		c1.7-0.8,3.6-1.2,5.7-1.2c1.7,0,3.9,0.5,6.6,1.4c0.9,0.3,2,1.3,3.4,2.9c0-0.3,0.1-0.8,0.4-1.6c0.3-0.8,0.4-1.4,0.4-1.8
		c-0.1-0.2-0.7-0.8-1.9-1.8c-1.2-1-1.8-1.7-1.8-2.2c0-1,0.3-2.7,1-5c0.7-2.3,1.3-3.6,1.9-4.1c2.3-1.5,7.4-2.5,15.1-3.1
		c13.5-0.9,22.5-1.4,27.2-1.4c0.4,0,1.3-0.1,2.6-0.2c2.5-0.2,4.1,0.4,4.7,1.7c-0.4,1.2-1,2.9-1.8,5c4.4,2.1,7,3.2,7.8,3.2h6
		c4.8,0,7.4-0.7,8-2C449.5,44.8,450.4,40.7,450.4,37z M379.4,82v-3.7c-2.8-1.2-5.2-1.8-7.3-1.8c-3.6,0-7.9,1.7-12.9,5v2.9h2.9
		c2.1-1.4,4-2.1,5.7-2c-0.7,0.7-1.4,1.1-2.1,1.1c0.8,0,1.8,0.3,2.9,0.8c1.7,0.8,2.7,1.2,2.8,1.2c0.2,0.9,0,2.2-0.5,3.8
		c-0.6,1.6-0.8,2.8-0.8,3.5c0,1,0.5,1.9,1.4,2.6c0.8-2.7,2.6-5.4,5.4-8.1v-2.6C376.9,83.5,377.8,82.6,379.4,82z M376.8,76.5v-2.9
		c0-2.2-0.7-6.3-2-12.2c-0.7-1.2-1.9-1.8-3.7-1.8h-4.6c1,1.6,1.5,3.6,1.5,5.8c0,3.4,0.1,5.4,0.2,6c-0.5,0.6-0.9,0.9-1.2,0.9
		c-1.1-0.9-1.7-2.4-1.7-4.6v-1.8c0.1-0.8,0.2-1.4,0.2-1.8c0-1.3-0.3-2.3-0.8-3.1c0.3-0.2,0.6-0.3,0.8-0.3c0.2,0,0.4,0.1,0.5,0.2
		c-2.6-0.2-4.4,0-5.5,0.6l1.4,17c4-1.6,7.4-2.4,10.3-2.4C374.5,75.9,376.1,76.1,376.8,76.5z M400.9,144.4c0-1.2-0.7-2.9-2.2-4.9
		c-1.5-2-2.8-3.1-3.9-3.1c-0.4,0-0.9,0.2-1.5,0.5l-0.9,0.5c2.9,0.6,4.3,3,4.3,7c0,2.1-0.1,3.4-0.3,3.7c-0.3-1.8-1.3-4.9-3.1-9.2
		c-0.8,0.8-2,1.2-3.7,1.2c-2.1,0-3.5-0.2-4-0.6c-0.8-0.6-1.5-2.4-2-5.5c-1.2,0.7-2.2,1.1-2.9,1.1c-0.2,0-0.4,0-0.6-0.2
		c1-0.8,2-1.6,3.1-2.3c1.6-1.4,2.4-2.6,2.4-3.5c0-1.2-1.2-2.4-3.5-3.7c0,0.7-0.1,1.4-0.3,2l-2.3,1.4c-3.1,1.8-5.8,2.8-8.3,2.8
		c-3.8,0-6-1.2-6.6-3.7c-2.3,2.3-3.5,3.9-3.5,4.6c0,1.4,0.8,2.5,2.4,3.2c1.2,0.3,2.4,0.7,3.7,1.1c-0.4,0.2-1,0.5-1.7,0.8L367,149
		c0.6,4.5,1.8,8.4,3.5,11.8c2.3,0.9,4,1.4,4.9,1.4c1.8,0,4.5-0.5,8.1-1.5c3.6-1,6.3-1.5,8.1-1.5c0.6,0,1.6,0.5,3.1,1.5v0.6
		c2.4-0.8,4-2.2,4.6-4.1C400.3,153.8,400.9,149.5,400.9,144.4z M382.5,111.7v-2c-0.4,0-0.9-0.3-1.5-0.8l-1.2,1.2
		c-1.1-2.2-1.7-4.5-1.7-6.7c-0.3,0.2-0.7,0.3-1.1,0.3c-1,0-2.1-0.8-3.3-2.4c-1.2-1.6-1.8-2.9-1.9-4.1h-0.9c0.1,2.1-0.1,5.4-0.6,9.8
		c-2-2.4-3.1-6-3.2-10.6c-0.2-6-0.5-9.8-0.9-11.3c-0.3-0.9-1.1-1.4-2.4-1.4l-2,2.1c1.9,7.5,3.2,16,3.8,25.2c1.5,1.7,3.2,2.6,5,2.6
		c0.5,0,1.4-0.2,2.8-0.6c1.3-0.4,2.3-0.5,3.1-0.3c-2.9,1.4-5.2,2.1-7,2.1c-3.5,0-5.3-1.6-5.4-4.9c-0.9,0.8-1.7,1.2-2.3,1.2v2.3
		c1.6,1.3,2.9,2.6,3.8,3.8c0.3,0.4,1,0.6,2,0.6C377.5,116.6,382.5,114.4,382.5,111.7z M365.5,86.1h-0.9l-0.6-1.4l0.8-0.3L365.5,86.1
		z M380.7,126.4c-0.9-2.1-1.8-5.3-2.6-9.3h-2.1c0,0.2,0.2,0.6,0.6,1.2c0.4,0.6,0.6,1,0.6,1.2c-0.6,0-1.5-0.2-2.6-0.6
		c-1.1-0.4-1.9-0.6-2.4-0.6c0.1,0.1,0.5,1.6,1.2,4.6c0.5,2,0.8,3.5,0.8,4.4c-1.2-0.5-2.4-2.7-3.5-6.6l-5.2-2v3.8
		c0,5.2,2.4,7.8,7.3,7.8c1.6,0,2.7-0.1,3.1-0.3C377,129.6,378.6,128.4,380.7,126.4z M429.6,33.4l-32.3,4.1c-13,1.7-20.8,4-23.4,6.9
		c-0.2,0.2-0.1,0.5,0.3,0.9l1.5-1.1c-0.6,0.7-1.4,1.7-2.3,2.9c0-0.9-0.3-1.5-0.8-1.8c-0.6,0.9-0.8,2.3-0.6,4.3
		c0.2,0.2,0.5,0.3,0.8,0.3c0.3,0,0.6-0.1,0.9-0.3v4.1c-0.5,0-1.4,0.2-2.6,0.6c-1.2,0.4-2.1,0.6-2.8,0.6c0.8-1,1.2-2.3,1.2-4
		c0-0.9-0.2-2.3-0.5-4.1c-0.3-1.8-0.5-3.1-0.5-4.1c0-1.6,0.4-3,1.1-4.1c0.2-0.3,2.2-1.4,6.1-3.4c5.7-2.8,13.5-4.1,23.4-4.1
		c0.5,0,1.3,0.2,2.4,0.5c1.1,0.3,1.9,0.5,2.5,0.5c-0.4,0-1.1,0.4-2.1,1.1c-1,0.7-1.7,1.1-2.2,1.1c-0.2,0-0.5-0.1-0.9-0.3
		c-0.4-0.2-0.7-0.3-0.9-0.3c-2.7,0-7.4,0.8-14.4,2.4c-8.6,2-12.9,4.1-12.9,6.1c0,0.6,0.3,1.6,0.9,3.1c0.1-0.9,0.4-2,0.9-3.4
		c2.2-2.3,12.4-4.7,30.6-7l19.3-2.4L429.6,33.4z M371.3,82.3h-2.8v-1.1h2.8V82.3z M373.3,62.6c0,0.9-0.5,1.9-1.5,2.9
		c-0.5-0.4-1.2-1.1-2.1-2l0.8-2.9C371,60.6,372,61.3,373.3,62.6z M392.9,151.6c-5.2,1.7-9.2,2.6-11.9,2.6c-4.6,0-7.6-1.9-9.2-5.8
		c-0.5-1.3-1.2-5.3-2.1-11.8h2.3c0.3,5.8,1,9.6,2,11.5c1.3,2.4,4,3.7,8,3.7c0.8,0,2-0.1,3.6-0.3c1.6-0.2,2.8-0.3,3.5-0.3
		c0.8,0,1.6-0.8,2.4-2.4L392.9,151.6z M373.2,110.8c0.1-0.2-0.4-0.8-1.4-1.8c-0.4,0.4-0.6,1-0.6,1.8v-3.1
		C371.7,108.2,372.3,109.2,373.2,110.8z M373.5,85.2l-0.6,0.6l-0.9-0.9l0.6-0.6L373.5,85.2z M396.6,101v-2.9c0-0.8-0.2-2-0.7-3.5
		s-0.7-2.6-0.8-3.3c-0.1-0.7-0.9-2.3-2.5-4.8v-1.4c-0.8,0-3.3,0.7-7.5,2l-10.3,3.2c-1,2-1.5,4-1.5,5.8c0,4.5,1.2,6.7,3.7,6.7
		c0.5,0,1.2-0.2,2.1-0.5l1.8-0.6C390.2,101.1,395.5,100.9,396.6,101z M393.4,96.1c-0.8-0.8-1.7-1.2-2.6-1.2c-1.9,0-4.5,0.5-7.6,1.4
		c-3.2,0.9-5.5,1.9-7,2.9c-0.3-0.1-1-1.3-2.1-3.5c1.1-0.2,3.2-0.8,6.3-1.8c2.7-0.9,4.8-1.4,6.4-1.4h6.1c0,0.4,0.1,1,0.3,1.8
		C393.3,95.1,393.4,95.7,393.4,96.1z M408.2,77.3h-3.8c-1.7,0-3.3,0.6-4.6,1.7c-1.4,1.5-2.9,3-4.4,4.4v3.5h2.1
		c2.3,0,4.4-1.2,6.1-3.5L408.2,77.3z M397.3,153.2l-0.6,0.6l-0.9-0.9l0.6-0.6L397.3,153.2z M403.3,100.8c-0.9-5.4-1.4-8.3-1.4-8.7
		c0-1.9,0.4-3.4,1.2-4.4H396V92c0,1.1,1.1,4.9,3.2,11.5C400.2,102.9,401.6,102.1,403.3,100.8z M452.9,139.8c0-2-1.1-7.4-3.4-16.2
		c-2.8,3.2-6.1,5.9-10.1,8.1c-4.5,2.6-8.6,3.8-12.2,3.7c0.4,1.3,0.6,2.1,0.5,2.4c-0.3-0.2-0.8-0.1-1.5,0.3
		c-1.5,0.1-5.6,0.6-12.1,1.4c-4.9,0.6-9,0.9-12.4,0.8v8.3h0.9c0.3-0.3,1.5-0.5,3.5-0.5c0.9,0,5.5-0.9,13.6-2.8
		c10.4-2.3,17.3-4.1,20.8-5.4c0.7-0.2,1.5-2.8,2.4-7.8c0.6,0,1.3,0.4,2,1.1v4.7c0,0.5-0.5,1.4-1.4,2.5c-0.9,1.2-1.6,1.8-2.1,1.9
		c-21.4,5.8-33.4,8.7-36,8.7c-1,0-2.3-0.4-3.8-1.2c0,3.1-0.5,6.3-1.5,9.6c5.4-1.3,13.5-3.3,24.3-5.8c6.9-1.6,11.4-2.7,13.5-3.2
		c6-1.6,10.1-3.1,12.4-4.4C452,145.1,452.9,143,452.9,139.8z M410,110c-3.6-4.8-5.9-7.2-7-7.2c-1.8,0-2.8,0.8-2.8,2.3
		c3.8,3.8,6.2,5.7,7.3,5.7c0.4,0,1-0.2,1.7-0.5L410,110z M416.8,93.9c-0.6-10.8-2.7-16.2-6.1-16.2c-1.1,0-2.6,1.2-4.4,3.7
		c-1.4,1.9-2.3,3.4-2.8,4.4c-0.1,0.3-0.2,2.2-0.2,5.7c0,8.2,2.8,14,8.3,17.4c1.5-0.4,2.9-2.7,4-6.7C416.5,98.7,416.9,96,416.8,93.9z
		 M414.9,93.9c0,1.5-0.3,3.1-0.9,4.6c-0.8,2-1.8,3.1-3.1,3.1c-1.5,0-2.7-1.5-3.4-4.4c-0.4-1.7-0.6-3.4-0.6-5c0-2,0.7-4.4,2-7h2
		c1.1,0,2.1,1.2,2.9,3.7C414.6,90.8,414.9,92.5,414.9,93.9z M447.4,115.4c-0.4-0.4-0.9-0.7-1.5-0.9c-1.2,1-2.8,2.3-4.7,3.8
		c1.1-1.2,2.4-3.1,3.8-5.7h-2.6c-2,0-6,1.7-12,5c-6,3.4-9.3,5.9-9.9,7.6c0.3,0.1,0.8,0.2,1.4,0.2c2.4,0,4.8-0.6,7.2-1.7
		c-0.7,0.2-1.7-0.4-3.1-1.7c0.5-0.8,2.3-2,5.3-3.5c3-1.5,5-2.3,6-2.3c0.9,0,1.2,0.2,0.9,0.5v2.8c-3.4,2.1-6.1,3.7-8.1,4.7
		c-3,1.5-5.8,2.4-8.4,2.8c0.4,0,1.1,0.2,2.1,0.5c1,0.3,1.7,0.5,2.1,0.5c3.3,0,7.1-1.4,11.6-4.1C442.1,121,445.3,118.2,447.4,115.4z
		 M447.4,52.9c-0.4-0.8-0.9-1.2-1.5-1.2c-2.6,0.6-4.7,0.9-6.4,0.9c-4.8,0-9.4-1-13.9-3.1v2.9c3.5,1.7,7.1,2.6,10.9,2.6
		c3.8,0,6.9-0.8,9.5-2.4c0.4,0.4,0.5,0.7,0.3,0.8c-0.5,0.5-2.2,1.1-5.1,1.8c-2.9,0.7-4.9,1.1-5.9,1.1c-0.6,0-4.4-0.9-11.5-2.6
		c1.1,3.4,4.8,5,11.2,5c4.6,0,7.3-0.7,8.3-2.1c0.3-0.6,0.6-0.9,0.8-0.9c0.4,0.4,0.6,0.7,0.5,0.9c-0.9,2.2-4,3.4-9.2,3.4
		c-4,0-8.1-0.9-12.2-2.6c1.1,0.8,3.2,2.2,6.1,4.1l-0.6,0.5c1.7,1.1,3.7,1.7,5.8,1.7C441.9,63.6,446.2,60.1,447.4,52.9z M449.2,122.9
		c-0.9-2.7-1.8-4.4-2.8-5.4c-8.4,8.3-15.8,12.2-22.3,11.8c2.1,1.1,3.5,1.7,4,1.7c2.8,0,6.2-1.1,10.4-3.4c0.9-0.6,4-2.5,9.2-5.8
		C448.4,122.5,448.9,122.9,449.2,122.9z M447.8,123c-9.8,6.1-16.4,9.2-19.7,9.2c-0.9,0-1.6-0.2-2-0.6c0,1.6,0.6,2.4,1.7,2.4h4.3
		c2,0,5.1-1.4,9.2-4.1C445.3,127.3,447.5,125,447.8,123z M437.6,117.7h-2.3c-1.5,0.7-3,1.4-4.4,2.1c-2,1.1-3.2,2.1-3.5,3.1
		C430.9,121.4,434.3,119.7,437.6,117.7z M440,40.7c0,2.8-0.7,5.5-2,8.3l-2.9-0.8c1.6-4.3,2.4-6.6,2.4-6.9c0-4.4-1.7-6.6-5-6.6
		c-0.5,0-1,0.1-1.5,0.2v-2.4c0.1,0.2,0.4,0.6,0.8,1.1c1.1-0.2,2.1-0.3,3.1-0.3c1.8,0,3.1,0.5,3.7,1.4C439.5,36.5,440,38.6,440,40.7z
		"/>
	<path class="st1" d="M561.2,40.7c0,2.7-0.9,4.3-2.6,4.9c-2,0.8-3.5,2.8-4.3,5.8c0-0.4-0.5-0.6-1.4-0.6c-1.7,0-6.8,4.5-15.3,13.5
		c-8.5,9-13,14.6-13.6,17c-0.2,1.9-0.4,3.9-0.5,5.8c-0.4,2.8-1.6,4.1-3.7,4.1c-0.3,0-0.8-0.1-1.4-0.3c-0.6-0.2-1.1-0.3-1.4-0.3
		c-1.1,0-2.5,0.7-4.2,2.2c-1.7,1.5-2.5,2.8-2.5,3.9c0,1.9,1.6,3.4,4.9,4.3c1.3,0.3,3.3,0.8,6,1.5c1.1,0.6,1.7,1.6,1.8,3.1l0.3,4.1
		c11.3,10.5,17.2,15.8,17.6,15.8c0.4,0,1.5-0.5,3.1-1.5c1.7-1,2.8-1.5,3.3-1.5c0.9,0,2.7,1.1,5.2,3.4c2.2,1.9,3.8,3.5,4.6,4.7
		c2.2,3.3,3.4,6.6,3.4,9.9c0-0.6-0.4,0.6-1.1,3.7c-1.1,4.8-3.2,8.9-6.1,12.2c-3.4,3.9-7.3,5.8-11.8,5.8c-5.6,0-11.3-2.1-17-6.3
		c0-2.2-0.3-5.5-0.9-9.8c-0.1-0.3-2-3-5.8-8c-3.7-6.4-7.3-11-11-13.8c-0.5-0.4-1.5-0.6-3-0.6c-1.5,0-2.3-0.1-2.5-0.3
		c-1.3-0.7-2.6-2.7-3.7-6c-1.3,0.8-2,2.1-2,4c0,4.1,0.7,11,2,20.8c0.4,3,1.2,5.8,2.4,8.6c-0.1,0.5-0.2,1-0.2,1.4
		c0,0.7,0.3,1.7,0.9,2.9l0.9,1.8c0,2.4-1.9,4.6-5.7,6.6c-3,1.5-5.4,2.3-7.2,2.3c-1.9,0-3.9-1.1-6-3.2c-0.1-0.4-0.2-0.8-0.2-1.2
		c0-0.4,0-0.8,0.2-1.2c-0.7-0.6-1.2-2.9-1.5-6.9c-1.9-8.7-3.5-16.2-4.6-22.6c-0.1-1.9-0.4-4.5-0.9-7.8c-0.4-0.6-1-1.2-1.7-1.8
		l-1.5-1.2c-1-0.8-1.5-2.3-1.5-4.4c0-0.5,0.5-1.9,1.5-4.1c1-2.2,1.5-3.6,1.5-4.1c0-6.4-1.1-14.5-3.2-24.2c-0.2-0.6-1-1.8-2.4-3.5
		c-1.1-1.3-1.7-2.6-1.7-3.8c0-0.6,0.7-1.9,2.1-4c1.4-2,2.1-3.2,2.1-3.4c0-1.8-1.3-10.8-3.8-26.8c-1.1-0.6-2.9-1.6-5.2-3.1
		c0-1.1-0.1-2.7-0.4-4.8c-0.3-2.1-0.4-3.7-0.4-4.8c0-8.2,7.1-12.2,21.4-12.2c6.1,0,10.1,0.6,11.9,1.7c2.7,1.6,4,5.5,4,11.5
		c0,1-0.7,2.6-2.2,4.7c-1.5,2.1-2.3,3.6-2.5,4.4c-1,4.3-1.7,13.5-2,27.5c0.9,0.5,2.4,1.4,4.6,2.8c0.4-0.1,1.6-1.4,3.5-4
		c1.1,0,2.5-0.3,4.1-0.9l6.9-9.5c4.6-4.5,11-11.7,19.3-21.6c0.9-2,2.3-4.9,4.1-8.6c1.7-0.9,2.9-2.1,3.5-3.5c1.3,0,2.8-0.6,4.3-1.7
		c1.5-1.1,2.6-1.7,3.2-1.7c5.1,0,9.2,3.2,12.2,9.5C560.1,31.9,561.2,36.4,561.2,40.7z M495.7,24.9v-3.4c-1.1-1.2-2.4-2-4-2.3
		c-5.2-1-9.4-1.5-12.5-1.5c-10.6,0-15.9,2.8-15.9,8.3c0,1.7,1.4,3.3,4.3,4.6c2.5,1.2,4.8,1.8,6.7,1.8h4.9c2.5,0,5.5-0.8,8.9-2.4
		C491.1,28.6,493.7,26.9,495.7,24.9z M474.3,40.9c-0.8-2.3-1.2-4.9-1.2-7.6l-9-2.4c0.5,2.3,0.7,4.7,0.5,7
		C466.7,38.6,470,39.6,474.3,40.9z M521.9,83.8c-1.6,1.6-2.7,2.4-3.2,2.4c-3,0-8.1-3.3-15.3-9.8c-0.8,0.8-1.4,1.7-1.8,2.8l-0.6,1.5
		c-0.3-0.1-0.7-0.4-1.2-1c-0.5-0.6-1-0.8-1.5-0.8c-0.6,0-2.2,1.2-4.9,3.7c-0.7,0-1.1-0.1-1.2-0.2c0.3,0,0.5-0.8,0.5-2.3
		c-1.2,1.2-2.1,1.8-2.6,1.8c-0.9,0-1.2-0.1-0.9-0.3c2-1.7,3.1-2.9,3.1-3.4c0-1.2-0.9-2.2-2.8-3.1c-0.8,0.8-2.2,1.7-4.1,2.8
		c-2.8,1.4-5.2,2.1-7.2,2.1c-1.5,0-3.1-0.7-4.8-2.2c-1.7-1.5-2.6-3-2.8-4.5l-0.9,3.5c3.4,3.4,5,5.3,5,5.8c-0.3,0.8-0.5,2-0.5,3.7
		c0,1.3,0.7,6.5,2,15.5c0,5.9,0,8.8,0,8.7c0.4,3.6,1.9,5.8,4.4,6.6c-0.4,0.3-1,0.4-1.7,0.2c-0.3-0.1-0.8-0.2-1.4-0.3
		c0.9,0.9,1.4,1.8,1.4,2.8c0,0.4-0.1,0.8-0.2,1.2c1.4,0.5,3.4,0.8,5.8,0.8c2.3,0,3.8-0.1,4.4-0.3c1.2-0.4,2.7-1.4,4.4-3.1
		c-0.5-0.5-0.8-1.2-0.8-2c-0.7,0.2-1.7,0.3-2.9,0.2c0.9-1.6,2.2-3.1,4-4.3c-0.1-0.7-0.2-1.5-0.2-2.4c0-1,0.1-2.1,0.2-3.4
		c3.3,3.2,5.8,5.2,7.5,6.1c0.8-2.2,2.2-4.5,4.3-6.7c2-2.2,4.1-3.5,6.3-3.9c-2.3-2.3-4-4.2-4.9-5.7c1.6-1.9,3.7-4.4,6.1-7.5l-0.5,0.2
		c-0.3,0.2-0.7,0.3-1.1,0.3c-0.7,0-1.2-0.7-1.5-2.1c0.4-0.4,0.9-0.6,1.4-0.6c0.5,0,1.5,0.5,3.1,1.4c1.5,0.9,2.7,1.4,3.4,1.4h3.1
		C521.5,88.1,521.9,86.3,521.9,83.8z M491.4,48v-5.7h-3.1c1,1.1,1.4,1.9,1.2,2.4c-1.7,1.8-2.7,4.4-2.9,7.6l-0.5,8.1h-0.5
		c-1.3-4.6-2-8.8-2-12.5c0,3.6-0.1,6.1-0.2,7.5c-0.1,1.1-0.1,2.5,0,4.1c0,0.6,0.2,1.5,0.5,2.8s0.5,2.1,0.5,2.8
		c0,1.7-0.6,2.9-1.8,3.4c-0.6-4.9-1.6-12-3.1-21.4l-3.8,1.8c-1.1,0-2.2-1.1-3.4-3.4l1.2-1.2c-1.8-0.9-3.1-1.4-3.7-1.4v4.9l2.9,20.3
		c0.3,2.2,0.2,4.3-0.3,6.1c0.1,0.6,1,1.4,2.8,2.4c1.8,1,3,1.5,3.7,1.5c1.4,0,3.4-0.5,6-1.5c2.6-1,4-2,4.1-3.1
		C490.7,66.3,491.4,57.7,491.4,48z M490.8,22.3c-3.1,3.5-6.5,5.2-10.4,5.2c-2.1,0-5.4-0.9-9.8-2.6c0-1.2,0.5-2.1,1.4-2.6
		c4.6-1.8,8.5-2.8,11.8-2.8C486.6,19.6,489,20.5,490.8,22.3z M475.4,113.2c-0.2,0-0.8,0.5-1.7,1.4l0.9,2.9c0.6-1.3,0.9-2.4,0.9-3.4
		C475.5,113.8,475.5,113.5,475.4,113.2z M489.6,38.4c-0.5-2-0.8-4.6-0.8-7.8c-1.4,0.9-4.6,1.8-9.5,2.8c-2.6,0.5-3.8,2.2-3.8,5.2
		c0,1.5,0.3,2.8,0.8,3.7c1.2-0.2,3.6-0.6,7-1.2C486.2,40.5,488.3,39.6,489.6,38.4z M489,84.5c0.4-0.2,0.7,0.1,0.9,0.9
		c0.1,0.5-0.5,1.5-1.8,3.1c0-0.7-0.4-1.4-1.1-2.1c-0.2,5.4-0.1,10.4,0.3,15c0,0.3,0.2,0.8,0.5,1.6c0.4,0.8,0.5,1.4,0.4,1.9v6
		c-1.4-2.2-2.9-8.4-4.4-18.4c0,0.2-0.3,3.7-0.9,10.4c-0.8-3.4-1.4-6.1-1.8-8.3c-0.2-1.2-0.1-3.6,0.5-7.2c-1.4-1.1-3.4-2.5-6-4.1
		c1.6-1.2,3-1.8,4-1.8c0.5,0,1.3,0.1,2.3,0.4c1,0.3,1.7,0.4,2.1,0.4c0,1.4-0.2,2.3-0.5,2.6c0.1,0.3,0.4,0.8,0.9,1.5
		c0.1-0.1,0.5-0.7,1.1-1.8c0.4-0.8,0.9-1.2,1.4-1.2c0.6,0,1.1,0.2,1.5,0.6L489,84.5z M496.9,151.6v-2c0-0.5-0.2-1.2-0.5-2
		c-0.4-0.8-0.5-1.4-0.5-1.7c-1.1-8.7-1.6-17.1-1.5-25.4c-2.6,1.1-5.2,2-7.8,2.6c1.3,1.4,2.1,4.5,2.4,9.2c0.1,2.4,0.4,6.2,0.8,11.2
		c0.1,0.6,0.5,1.7,1.2,3.4c0.7,1.6,1.1,2.8,1.1,3.4c0,0.4-0.3,0.9-0.9,1.5c-0.4-0.4-0.8-0.6-1.1-0.6c-1.8-2.4-3-6.3-3.5-11.6
		c0-0.3-0.4-5.6-1.2-15.8c-2.3-0.6-4.2-0.9-5.5-0.9c-0.8,0-1.4,0.1-1.8,0.3v2.4c0,3.1,1.7,11.9,5,26.5c2.2,1,4.4,1.5,6.6,1.5
		C489.2,153.6,491.6,152.9,496.9,151.6z M482.7,22.3v-1.1h-2.1v1.1H482.7z M501.1,156.7c-5,3.7-8.1,5.5-9.3,5.5
		c-0.9,0-1.2-0.1-0.9-0.3c2.7-1.3,4.9-2.6,6.7-3.8c-2.1,0.7-4.4,1.1-6.7,1.1c-2,0-4.3-0.9-6.7-2.8c0.4-0.2,1.1-0.2,2,0
		c0.9,0.2,1.6,0.3,2,0.3c1.8,0,4.1-0.6,6.8-1.9c2.7-1.3,4.2-2.7,4.4-4.2c-1.5,2.4-5.2,3.7-10.9,3.7c-2.3,0-3.9-0.2-4.6-0.6l-1.5,1.5
		c0.4,1.2,1.2,2.7,2.3,4.4c-0.4,1.1-0.5,2.1-0.3,2.9c0.3,1.4,1.9,2.1,4.7,2.1c2.4,0,5-0.8,7.7-2.3
		C499.4,160.8,500.9,158.9,501.1,156.7z M486.4,23v-1.1h-1.5V23H486.4z M487.3,72.1h-0.9l-0.6-1.4l0.8-0.3L487.3,72.1z M489,23.7
		c-0.4-0.4-0.9-0.8-1.5-1.1c-0.9,0-1.4,0.6-1.4,1.8C486.6,24,487.6,23.7,489,23.7z M488.5,118h-0.9l-0.6-1.4l0.8-0.3L488.5,118z
		 M499.4,154.4c-4.1,2-8,3.1-11.6,3.2c0.1,0,0.5,0.2,1.3,0.5s1.4,0.5,1.8,0.5c1.4,0,4-0.7,7.7-2.1
		C498.6,156,498.9,155.3,499.4,154.4z M493.3,126.5c-0.7,0.2-1.6,0.7-2.8,1.4l-1.4-1.4V123l4.1,1.4V126.5z M496.2,32.1v-5.8
		c-1.3,0.9-3.3,2.4-6,4.4c-0.1,3.1,0.2,5.9,0.9,8.4C494.6,35.1,496.3,32.7,496.2,32.1z M492.2,83.5l-0.8,1.5l-0.8-0.3l0.8-1.5
		L492.2,83.5z M494.3,75.3v-2.8c-0.5-1.3-1.4-2-2.8-2c0,0.3-0.1,0.8-0.3,1.4c-0.2,0.6-0.3,1.1-0.3,1.4
		C491.8,73.3,492.9,74,494.3,75.3z M505.5,87.4c-1,1.3-1.7,2-2.1,2c-0.3,0-0.6-0.1-0.8-0.3c-0.2-0.2-0.5-0.3-0.8-0.3
		c-0.6,0-1.5,0.8-2.6,2.3c-1.1,1.5-1.7,2.6-1.7,3.2c0,0.4,0.8,2,2.4,4.9l3.1,5.4h-2.3c-5-4.6-7.5-7.4-7.5-8.4c0-1.1,1.1-3.2,3.2-6.1
		c2.1-3,3.2-4.9,3.2-6c0-1-0.3-2-0.9-3.1c1,0.2,2.2,0.9,3.6,2.1c1.4,1.2,2.4,1.9,3.1,2.2V87.4z M495.6,113.2c-0.2,0-0.6,0.2-1.1,0.7
		c-0.6,0.5-0.9,0.7-1.1,0.7c1.4,1.4,2.1,2.4,2.1,2.9c0.4-0.8,0.6-1.6,0.6-2.4C496,114.4,495.9,113.8,495.6,113.2z M501.2,109.4
		l-2.9,0.8l-1.4-1.5c0.1-0.1,0.3-0.6,0.7-1.5c0.4-0.9,0.6-1.3,0.8-1.3C500.3,106.8,501.2,108,501.2,109.4z M500.6,108.9l-0.3-0.8
		l-1.4,0.6v0.9L500.6,108.9z M502,73.3c-0.2-1.5-0.3-2.7-0.3-3.5c0-0.6,0.1-1,0.2-1.1c-1.6,0.7-2.4,2-2.4,3.8c0,0.4,0.2,1,0.5,1.8
		c0.3,0.8,0.5,1.4,0.5,1.8C500.3,75.1,500.9,74.1,502,73.3z M503.7,120.4c0-0.2-0.1-0.6-0.4-1.1c-0.3-0.5-0.4-0.9-0.4-1.1
		c-0.7-0.1-1.1,0.1-1.2,0.5c-0.1,0.2-0.1,0.6,0,1.1c0.2,0.6,0.3,1,0.2,1.2C502.7,121,503.3,120.8,503.7,120.4z M503.7,67.9l-0.3-0.8
		l-1.4,0.6v0.9L503.7,67.9z M515.1,106.3c0-2.3-0.5-3.5-1.4-3.5c-2.1,0-4.6,1.1-7.3,3.3c-2.7,2.2-4.1,4.4-4.1,6.5l1.2,3.7
		C507.7,109.9,511.5,106.5,515.1,106.3z M553.2,47.4c-8.6-3.8-12.9-10.2-12.9-19.3c0-2.9,0.1-4.6,0.3-5.2c-0.1,0.4-0.7,1.2-1.8,2.5
		c-1.1,1.3-1.6,2.2-1.6,2.7c0,0.6,0.2,1.5,0.5,2.8c0.3,1.2,0.5,2.1,0.5,2.8c-0.1-2.9,0.1-5.1,0.6-6.7c0.4,3.9,1.5,9.3,3.4,16.2
		c-1,1-1.6,1.7-1.7,2c0.4,0,0.8,0.3,1.1,0.9c-0.1,0.2-0.2,0.4-0.3,0.5c-4.7-3.4-7.1-7.4-7.3-12.2l-0.3,3.5c-0.1,1-0.1,1.8,0.2,2.4
		c1,3.4,2.6,6.4,4.7,9c0.7,0.8,2,1.7,3.8,2.6c0.8,0,2,0.2,3.5,0.6c0,0.4-0.2,0.7-0.5,0.8h-2.1c-0.6-0.2-2.3-1-5-2.4
		c-1.8,2.2-4.9,5.5-9.2,9.8c-0.4-0.4-0.5-0.7-0.3-0.9c0.7-0.7,2.3-2.9,4.7-6.4c-0.3,0.4-3.9,4.8-10.9,13.3c-4.2,5.1-7.1,8.2-8.7,9.3
		c-0.2-1.8,2.8-6.6,9-14.2c1.2-1.5,3.7-4.5,7.3-9c3.1-3.7,4.6-5.7,4.6-6.1c0-0.6-0.4-1.4-1.1-2.4c-0.7-1-1.1-1.8-1.2-2.3
		c-0.5-1.5-0.8-2.9-0.8-4.1c0-1,0.2-1.9,0.5-2.8c-6.8,7.3-12,13.2-15.6,17.4c-5.6,6.7-9.2,12.2-10.7,16.4l-1.1,1.1
		c-0.4,0.4-0.6,0.9-0.6,1.5c0,2.4,1.8,5.4,5.5,8.7c3.7,3.4,6.7,4.8,9,4.4c3.8-4.9,13.2-15.7,28.2-32.3c1.5-0.3,2.5-0.8,2.9-1.5
		c0.1-0.8,0.5-2,1.2-3.5C551.3,47.3,552,47.4,553.2,47.4z M530.6,134.2c-2.3-0.4-6.4-3.3-12.2-8.6c-5.3-4.9-9.4-7.1-12.2-6.7
		c4.4,5.7,10.6,14,18.7,24.9C526.1,141.6,528.1,138.4,530.6,134.2z M537.3,126.5c-11.7-11.7-18.2-17.6-19.3-17.6
		c-1.3,0-3.4,1.2-6.1,3.7l-1.2-1.2c-0.3,0.3-0.7,0.8-1.1,1.4c-0.4,0.6-0.8,1.1-1.1,1.4c6.4,3.9,13.9,10.3,22.3,19.3l3.1-4.3
		C535.1,127.6,536.2,126.7,537.3,126.5z M517.7,80c-0.1,0.5-0.6,0.8-1.5,0.8c-0.5,0-0.7-0.2-0.6-0.5c0.2-0.3,0.2-0.6,0-0.8
		c-0.4,0.2-0.6,0.5-0.6,0.9c0-0.2,0.2-0.7,0.5-1.5c0.4-0.8,0.5-1.4,0.5-1.9C517.2,78.2,517.7,79.2,517.7,80z M533.5,157.9v-2.3
		c-0.2-0.3-0.5-1.8-0.8-4.4c-0.3-1.9-1-3.2-2-3.7c0,0.7,0.4,1.4,1.1,2.1c-0.2,0.2-0.6,0.3-1.1,0.2c-0.6-0.1-0.9-0.1-1.1,0.2
		c-0.1-0.1-0.1-0.3,0-0.6c0.1-0.4-0.2-0.6-0.8-0.6c-1.6,0-2.4,0.9-2.4,2.8c0,1.2,0.9,2.5,2.8,3.8C530.6,156.1,532.1,157,533.5,157.9
		z M528.3,148.6V147h-1.1v1.5H528.3z M541.6,133.6c-0.5,0-1.4-0.7-2.8-2c-1.1,1.3-2.7,2-4.7,2c-0.3,0-0.6-0.1-0.9-0.2
		c-0.5,1-2.4,4.2-5.7,9.5c1.4,1.2,3.4,2.5,6,4C534.1,143.5,536.8,139.1,541.6,133.6z M558.8,142.6c0-2.1-0.1-3.5-0.3-4.1
		c-0.4-1.7-1.6-3.6-3.5-5.5h-5.4c0.6,0,1.4,0.3,2.4,0.8l-0.9,0.9c-1.4-0.7-3-1.1-4.6-1.1c0.2,0.2,0.3,0.4,0.3,0.6
		c0,0.2-0.1,0.4-0.2,0.5c-1.9,0-3.6,0.5-4.9,1.5c-5,3.9-7.5,8.9-7.5,15c0,0.5,0.2,1.2,0.5,2.1c0.3,0.9,0.5,1.5,0.5,1.9
		c0-0.6,0.4-0.9,1.1-0.9c0.7,2.1,1.7,3.8,2.9,5h-0.8c-0.7-0.4-1.6-0.9-2.8-1.5c1,2.5,3.3,3.8,6.9,3.8c4.1,0,7.9-2.2,11.3-6.6
		C557.1,150.9,558.8,146.8,558.8,142.6z M540.2,43.6c-1.4-2.2-2.8-7-4-14.2c-0.5,0-1,1.3-1.4,4c0.8,1.9,1.6,3.9,2.3,5.8
		C538.3,41.5,539.3,43,540.2,43.6z M553.9,130.7c-0.6-0.4-2-1.2-4.1-2.4c-1.7-1-2.9-1.5-3.5-1.5c-0.4,0-1.6,0.5-3.5,1.4
		c-1.9,0.9-3.3,1.4-4.1,1.4c1.2,0.4,2.8,1.7,4.6,4c2.7-2,5.2-3.1,7.7-3.1c0.3,0,0.8,0.1,1.5,0.2C553,130.6,553.6,130.7,553.9,130.7z
		 M556.3,142.9c0,2.8-1.2,5.4-3.7,8c-2.5,2.6-5.1,3.9-7.9,3.9c-0.9,0-1.9-0.4-2.8-1.2c-1-0.8-1.5-1.6-1.5-2.4c0-2.7,1.3-5.7,3.9-9
		c2.6-3.4,5.2-5,7.7-5c1.2,0,2.2,0.6,3.1,1.9C555.9,140.3,556.3,141.6,556.3,142.9z M559.4,40.7c0-0.5-0.1-1.3-0.4-2.4
		c-0.3-1.1-0.4-1.9-0.4-2.4c0-2.4-1.2-5.5-3.7-9.2c-2.9-4.3-5.8-6.4-8.7-6.4c-1.2,0-2.3,0.9-3.2,2.8s-1.4,3.5-1.4,4.9
		c0,4.2,1,7.9,3.1,11.2c2.3,3.8,5.5,5.7,9.5,5.7C557.6,44.7,559.4,43.4,559.4,40.7z M543.6,152.2v-4.6h-1.1v4.6H543.6z M556.9,36.1
		c0,1.1-0.9,2.6-2.6,4.3c-2.2-0.5-4.3-2.1-6.2-4.7c-1.9-2.7-2.8-5.1-2.8-7.5c0-3.3,1.1-4.9,3.4-4.9c1.7,0,3.6,2.1,5.7,6.3
		C556,33.1,556.9,35.3,556.9,36.1z M549.4,34c-0.7-1.7-1.1-3.9-1.1-6.4h-0.9C547.2,30,547.9,32.1,549.4,34z"/>
</g>
<g class="st0">
	<path class="st1" d="M646.2,111.1c0,0.2-1.2,1.7-3.5,4.5c-0.6,0-1.3,0.2-2.2,0.5c-0.9,0.9-2,3.3-3.2,7.2c-1,1.8-2.1,4.4-3.2,7.7
		c-0.5,1.6-1.6,5.7-3.4,12.3c0,0.2,0.1,0.4,0.2,0.8c0.1,0.4,0.2,0.6,0.2,0.7c0.1,0.5,0.1,1.2-0.2,2.1c-0.2,1-0.5,1.6-0.8,1.9
		c-0.7,0.4-1.5,1.1-2.5,1.9l-0.8,2.8c-0.8,2-2.1,5.1-3.8,9.5c-2.2,5.6-4.4,8.4-6.9,8.4c-1.8,0-3.3-0.8-4.5-2.5
		c-0.5-0.8-1.6-2.6-3.3-5.2c-2.3-3.6-4.1-7.1-5.5-10.6c-1.9-4.6-3.3-7.4-4.2-8.5c0.7,0.5,1.6,1.3,2.5,2.4c2.5,5.5,5.2,11.1,8.3,16.6
		c1.1,2,1.7,3.1,2,3.5c0.9,1.3,1.8,2.3,2.7,2.9c0.4,0.3,0.9,0.4,1.8,0.4h1.2c1.3-0.4,2.7-2.5,4.3-6.4l2.8-6.8c1.2-3,2-5.5,2.4-7.3
		c0-0.2,0.3-0.6,0.6-1.2s0.5-1,0.5-1.3c0-0.4-0.8-1.6-2.5-3.8c0.8,0.1,1.5,0.7,2.2,1.8c0.7,1.1,1,2.1,0.9,3c0,0.3,0.1,0.5,0.2,0.6
		c0.9-1,1.4-1.8,1.4-2.6c0-1.8-1.1-3.8-3.2-5.9c-2.1-2.1-4.1-3.4-5.9-3.7c-1.3-0.3-2.1-0.4-2.5-0.4c-1.1,0-2,0.5-2.6,1.4l0.2,1.7
		c0.6-0.6,1.4-0.9,2.4-0.9c0.5,0,2.4,1.1,5.7,3.3c-1.8-1.1-3.4-1.8-4.8-2.1c-0.1-0.1-0.3,0-0.5,0.2c0.6,0.6,0.8,1.1,0.8,1.6
		l-2.8-0.2c-0.2,0.7-0.6,1.8-1.2,3.4c-0.7-0.4-1.4-1.2-1.9-2.5c-0.6-1.4-1.1-2.4-1.5-2.8c-0.3,1.1-0.7,2.3-1.2,3.4
		c-0.3-0.7-1-1.5-2-2.6c0.1-0.1,0.3-0.2,0.5-0.3c0.2-0.1,0.4-0.2,0.5-0.3c-0.2-0.2-0.5-0.3-0.8-0.3c0.3,0,0.5-0.2,0.5-0.5
		c-0.1,0-1-0.1-2.8-0.1c1.6-0.5,2.5-0.8,2.8-0.8c0.8,0,1.3,0,1.5,0.1c0.4,0.2,1.1,0.6,2.1,1.5c0.3-0.3,0.5-0.6,0.5-0.9
		c0-0.9-0.4-1.6-1.3-2.2c-0.9-0.6-1.8-0.9-2.7-0.9c-1.7,0-3.8,0.9-6.4,2.6c-2.8,2-4.2,3.8-4.2,5.7c-2-6.2-3.9-11.5-5.8-15.8
		c-1.1-2.5-2.7-6.5-4.9-12c-0.2-0.1-0.5-0.3-0.8-0.6c0-0.9-0.1-1.6-0.2-2.2c-0.3-0.4-0.5-0.6-0.7-0.7c0.1,0.4,0.2-0.1,0.2-1.3v-0.8
		c-0.1-0.2-0.3-0.2-0.6-0.1c-0.5,0.1-0.8,0.1-0.9,0.1v-1.3c0-0.5,0.6-1.4,1.7-2.8c0.9-1.2,1.7-2.1,2.4-2.7c1.3-1.2,3.1-2.3,5.4-3.3
		c2.3-1,4.3-1.5,5.9-1.5c1.2,0,2.4,0.3,3.7,1c-0.1,0.5,0,1.1,0.1,1.8c0.3,0.2,0.7,0.6,1.3,1.2c-0.1,0.3-0.1,0.7-0.1,1.2l0.5,0.5
		c0.2,0.2,0.3,0.5,0.3,0.8c0,0.3-0.2,0.8-0.6,1.5c-0.4,0.8-0.6,1.3-0.6,1.5c0,1.2,0.7,4.4,2.2,9.5c0.5,1.7,1.3,4.4,2.3,7.9
		c0.4,2.5,1.1,5.3,2.1,8.3c0.2,0.5,0.6,1,1.2,1.7c0.7,0.7,1.2,1,1.6,1c0.4,0,0.9-0.2,1.5-0.7c0.6-0.5,0.9-0.9,1-1.3
		c4.2-15.9,6.2-24.7,6.2-26.3c0-0.3-0.3-0.7-0.8-1.4c-0.5-0.7-0.8-1.1-0.8-1.3c0-1.6,0.5-4,1.4-7.2c2.1-0.7,4.3-1.1,6.8-1.1
		c1.5,0,2.3,0.1,2.5,0.2l5.3,2.5c1.7,0.8,3.3,2,4.8,3.4c0.6,0.6,1.3,1.8,2.1,3.6C645.8,108.9,646.2,110.2,646.2,111.1z M603.7,100.7
		c-1-0.9-1.6-1.4-2-1.4c-2.3,0-5.1,1-8.5,3c-3.7,2.2-5.8,4.5-6.4,6.9c1.7-2.8,4.4-4.8,7.9-6C595.7,102.9,598.7,102.1,603.7,100.7z
		 M605.8,105.7c-0.3-0.4-0.7-1.1-1.3-2c-1.2,0.5-3.1,1.1-5.8,1.8c-2.7,0.7-4.7,1.3-6,2c-2.1,1-3.8,2.5-5,4.5c0.1,0,0.3,0.1,0.7,0.3
		c0.4,0.2,0.6,0.3,0.7,0.3c0.8-0.8,2-1.8,3.4-3c1-0.5,3-1.4,5.9-2.6c3.3-1.4,5.2-2.1,5.7-2.1c0.3,0,0.4,0.1,0.4,0.2
		c0,0.1-0.1,0.1-0.2,0.2l-6.6,2.6c-6.1,2.4-9.1,4.6-9.1,6.5c0,0.3,0.1,0.5,0.3,0.7l0.3,0.2c1.6-2.5,4-4.6,7.2-6.4
		c3.2-1.8,6.2-2.6,9-2.3c0-0.1,0.1-0.3,0.2-0.5C605.8,105.9,605.8,105.8,605.8,105.7z M605.2,103.3c-1.2-1.2-2-1.8-2.3-1.8
		c-0.8,0-3.4,0.8-7.8,2.3c-1.7,0.6-3.6,1.6-5.5,3.1c-0.3,0.2-0.6,0.6-1,1.4c-0.4,0.8-0.5,1.4-0.5,1.8c1.7-1.8,3.9-3.3,6.6-4.3
		c1.3-0.5,3.9-1.3,7.7-2.4C602.8,103.2,603.8,103.2,605.2,103.3z M611.4,134.7l-1.4-5.1c-1.1-4-2.7-9.8-4.7-17.5
		c-0.2-0.5-0.3-1.5-0.5-2.8c-0.1-0.2-0.3-0.2-0.5-0.1c-0.2-0.2-0.5-0.3-1-0.3c-1.5,0-2.6,0.4-3.1,1.2l-0.5-0.5c0-0.7-0.1-1-0.2-1
		c-1.4,0.3-3.1,1.2-5.1,2.8c-1.6,1.3-3.1,2.7-4.4,4.4c-0.4,0.4-0.5,0.6-0.5,0.7c0.3,0.6,1.4,2.7,3.3,6.2c1.5,4.7,2.8,8.3,3.7,10.8
		c0.1,0.1,1.1,2.6,3,7.5c0.4-1.1,2.2-2.7,5.5-5c1.4-1,2.4-1.5,2.9-1.5c0.4,0,0.9,0,1.7,0.1C610.5,134.7,611,134.7,611.4,134.7z
		 M603.1,131.8c-0.3,0.3-0.5,0.4-0.7,0.4c-0.2,0-0.3-0.1-0.5-0.3c-0.3-1.1-1.7-5.1-4.2-11.9c-1.7-4.8-2.6-7.4-2.6-7.7l0.8-0.9
		c0.7,0.4,1.2,1,1.5,1.9C598.2,116,600.1,122.1,603.1,131.8z M620.2,164.3c-0.2,0.8-0.7,1.6-1.6,2.3c-0.8,0.7-1.7,1.1-2.5,1.1
		c-1.8,0-3.5-1.3-5.2-3.8c-0.9-1.6-2.1-3.9-3.6-6.8c-1-2-3.1-6-6.3-12.2c0.8,1.1,1.9,2.7,3.2,5c4.8,11.2,8.7,16.9,11.7,16.9
		C617.2,166.8,618.7,166,620.2,164.3z M604.3,135.5l-0.7,0.8c-0.2,0-0.3-0.1-0.4-0.4c-0.1-0.3-0.2-0.4-0.3-0.5
		c-0.2,0.1-0.5,0.4-0.9,0.9c0-0.5-0.2-0.8-0.5-1.1c0.5-0.5,1.2-1,2.1-1.6c-0.1,0.2-0.1,0.3-0.1,0.5
		C603.5,134.3,603.8,134.8,604.3,135.5z M603,141.5c0,0.8-0.1,1.3-0.4,1.5c-0.2-0.1-0.4-0.2-0.8-0.5L603,141.5z M604.3,107.7
		l-1.2-0.4v0.5l1,0.3L604.3,107.7z M605.8,140.1c0,0.1-0.1,0.3-0.2,0.5c-0.1,0.3-0.2,0.4-0.2,0.5h-1.4c0-0.2,0.2-0.5,0.5-0.9
		c0.3-0.4,0.5-0.7,0.5-0.9L605.8,140.1z M619.6,153.6c-0.1,0.9-0.6,2.2-1.4,3.9c-1,2.1-2.1,3.2-3.2,3.2c-1,0-3-2.7-5.8-8.1
		c-2-3.7-3.6-7.3-5-10.6c0.3,0,0.8-0.2,1.8-0.7c0.9,1.6,2.3,4.5,4.2,8.8c1.7,3.8,3.4,6.8,5.1,9.1c0.7-0.1,1.5-1.1,2.5-3.2
		c-0.2,0-0.4,0-0.7-0.1c-0.3-0.1-0.5-0.1-0.7-0.1l-0.8,0.5c0.7-0.7,1.2-0.9,1.4-0.8l0.8-0.5c-0.2,0.2-0.3,0.3-0.3,0.5
		c0,0.1,0.1,0.2,0.2,0.3C618.1,155.6,618.7,154.8,619.6,153.6z M611.5,142.4l-0.4-0.8l-0.4,0.2l0.3,0.7H611.5z M611.8,141.3
		l-0.5-0.5l-0.3,0.3l0.5,0.5L611.8,141.3z M616,140.7c-0.7-0.7-1.2-1-1.5-1c-0.2,0.4-0.2,0.7-0.2,1.1c0,0.7,0.3,1.4,0.9,2
		C615.7,142.3,616,141.6,616,140.7z M617.6,140.9v-1.4h-0.5v1.4H617.6z M639.4,114c0-0.5-0.8-1.2-2.4-2.2c-1.3-0.8-2.2-1.2-2.5-1.3
		c0.2,0.2,0.2,0.3,0.2,0.4c0,0.1-0.1,0.2-0.2,0.2c-0.3,0-0.7-0.3-1.2-0.8c0.1-0.1,0.3-0.1,0.5-0.1c0.4,0.1,0.6,0.1,0.8,0.1
		c-1-0.2-2.6-0.5-4.9-1.1c0,0.4-0.3,1-0.8,1.8c-0.2-0.2-0.7-0.6-1.7-1.2c-1-0.6-1.5-1-1.5-1.2c0-0.4,0.2-0.8,0.6-1.2H625l-7.2,27.9
		c2.1-0.2,4.3,0.6,6.8,2.3c2.2,1.5,3.8,3.3,5.1,5.3c1.8-6.3,3.3-11.4,4.5-15.3c0.2-0.6,1.3-3.3,3.2-8.2
		C638.7,116.1,639.4,114.2,639.4,114z M620.9,152.8l-0.5,0.2l-0.2-0.5l0.5-0.2L620.9,152.8z M625.2,133.9v2.1h-1.7l-0.7-0.7
		c0-0.1,0.1-0.3,0.3-0.7c0.2-0.4,0.3-0.6,0.3-0.7H625.2z M640.8,114.8c0.4-1.8-1.7-3.9-6.3-6.2c-4.2-2.2-7.4-3.2-9.7-3.2h-1.7
		c0.4,0.4,0.8,0.8,1.3,1.4c0.8,0.1,1.9,0.1,3.2,0.2c1.3,0.2,2.6,0.6,3.9,1.2c2.7,1.3,4.2,2.1,4.6,2.3
		C638.2,111.6,639.7,113.1,640.8,114.8z M631.9,98.1c-1.3,0.1-3,0.4-5.2,0.8c-0.2,0.4-0.7,0.9-1.6,1.7c0.1-0.2,0.1-0.5,0-0.8
		c-0.1-0.1-0.3-0.1-0.7-0.2c-0.2,1.1-0.5,2.6-1,4.5c1.5,0.3,3.6,0.7,6.1,1.3c0.3-1.3,0.8-2.8,1.8-4.7c0.1-0.2,0.2-0.4,0.2-0.6
		c0-0.2-0.1-0.4-0.2-0.7C631.7,98.7,631.9,98.2,631.9,98.1z M625.5,99.5V99h-1.1v0.5H625.5z M626.8,134.1c-0.4,0.3-0.6,0.4-0.8,0.4
		c-0.2-0.4-0.3-0.8-0.3-1.2C626.4,133.3,626.8,133.6,626.8,134.1z M633.6,112.8c0,0.2-0.2,0.5-0.5,1c-0.2,2.3-0.9,5.2-2.1,8.5
		c-1,2.8-2.1,5.6-3.1,8.4c0,0.1-0.2,0.3-0.6,0.5c-0.4,0.3-0.7,0.4-0.8,0.4l5.3-20.6c0.2,0,0.5,0,0.9-0.1c0.4-0.1,0.7-0.1,0.9-0.1
		V112.8z M630.1,108.7v-0.5l-1.4-0.4v0.5L630.1,108.7z M641.9,104.7v-1c-2.2-1-5.2-2.6-9.2-4.6c0.4,0.3,0.6,0.7,0.6,1.2
		c0,0.7-0.4,1.6-1.2,2.8l-1.8,2.6c3.8,1.7,6.5,3.1,8.2,4.1c0.3-0.5,1-1.4,2-2.8C641.4,105.6,641.9,104.8,641.9,104.7z M631,109.1
		v-0.5h-0.8v0.5H631z M631.8,102.7v-0.8h-0.5v0.8H631.8z M645,110.4c0-0.2-0.4-1-1.1-2.5c-0.7-1.4-1.1-2.4-1.2-2.8
		c-0.8,1.1-2.1,2.8-3.8,5.1c1.8,1.7,2.9,3,3.2,3.8C644,112.2,645,111,645,110.4z"/>
	<path class="st1" d="M709.9,111.1c0,0.2-1.2,1.7-3.5,4.5c-0.6,0-1.3,0.2-2.2,0.5c-0.9,0.9-2,3.3-3.2,7.2c-1,1.8-2.1,4.4-3.2,7.7
		c-0.5,1.6-1.6,5.7-3.4,12.3c0,0.2,0.1,0.4,0.2,0.8c0.1,0.4,0.2,0.6,0.2,0.7c0.1,0.5,0.1,1.2-0.2,2.1c-0.2,1-0.5,1.6-0.8,1.9
		c-0.7,0.4-1.5,1.1-2.5,1.9l-0.8,2.8c-0.8,2-2.1,5.1-3.8,9.5c-2.2,5.6-4.4,8.4-6.9,8.4c-1.8,0-3.3-0.8-4.5-2.5
		c-0.5-0.8-1.6-2.6-3.3-5.2c-2.3-3.6-4.1-7.1-5.5-10.6c-1.9-4.6-3.3-7.4-4.2-8.5c0.7,0.5,1.6,1.3,2.5,2.4c2.5,5.5,5.2,11.1,8.3,16.6
		c1.1,2,1.7,3.1,2,3.5c0.9,1.3,1.8,2.3,2.7,2.9c0.4,0.3,0.9,0.4,1.8,0.4h1.2c1.3-0.4,2.7-2.5,4.3-6.4l2.8-6.8c1.2-3,2-5.5,2.4-7.3
		c0-0.2,0.3-0.6,0.6-1.2s0.5-1,0.5-1.3c0-0.4-0.8-1.6-2.5-3.8c0.8,0.1,1.5,0.7,2.2,1.8c0.7,1.1,1,2.1,0.9,3c0,0.3,0.1,0.5,0.2,0.6
		c0.9-1,1.4-1.8,1.4-2.6c0-1.8-1.1-3.8-3.2-5.9c-2.1-2.1-4.1-3.4-5.9-3.7c-1.3-0.3-2.1-0.4-2.5-0.4c-1.1,0-2,0.5-2.6,1.4l0.2,1.7
		c0.6-0.6,1.4-0.9,2.4-0.9c0.5,0,2.4,1.1,5.7,3.3c-1.8-1.1-3.4-1.8-4.8-2.1c-0.1-0.1-0.3,0-0.5,0.2c0.6,0.6,0.8,1.1,0.8,1.6
		l-2.8-0.2c-0.2,0.7-0.6,1.8-1.2,3.4c-0.7-0.4-1.4-1.2-1.9-2.5c-0.6-1.4-1.1-2.4-1.5-2.8c-0.3,1.1-0.7,2.3-1.2,3.4
		c-0.3-0.7-1-1.5-2-2.6c0.1-0.1,0.3-0.2,0.5-0.3c0.2-0.1,0.4-0.2,0.5-0.3c-0.2-0.2-0.5-0.3-0.8-0.3c0.3,0,0.5-0.2,0.5-0.5
		c-0.1,0-1-0.1-2.8-0.1c1.6-0.5,2.5-0.8,2.8-0.8c0.8,0,1.3,0,1.5,0.1c0.4,0.2,1.1,0.6,2.1,1.5c0.3-0.3,0.5-0.6,0.5-0.9
		c0-0.9-0.4-1.6-1.3-2.2c-0.9-0.6-1.8-0.9-2.7-0.9c-1.7,0-3.8,0.9-6.4,2.6c-2.8,2-4.2,3.8-4.2,5.7c-2-6.2-3.9-11.5-5.8-15.8
		c-1.1-2.5-2.7-6.5-4.9-12c-0.2-0.1-0.5-0.3-0.8-0.6c0-0.9-0.1-1.6-0.2-2.2c-0.3-0.4-0.5-0.6-0.7-0.7c0.1,0.4,0.2-0.1,0.2-1.3v-0.8
		c-0.1-0.2-0.3-0.2-0.6-0.1c-0.5,0.1-0.8,0.1-0.9,0.1v-1.3c0-0.5,0.6-1.4,1.7-2.8c0.9-1.2,1.7-2.1,2.4-2.7c1.3-1.2,3.1-2.3,5.4-3.3
		c2.3-1,4.3-1.5,5.9-1.5c1.2,0,2.4,0.3,3.7,1c-0.1,0.5,0,1.1,0.1,1.8c0.3,0.2,0.7,0.6,1.3,1.2c-0.1,0.3-0.1,0.7-0.1,1.2l0.5,0.5
		c0.2,0.2,0.3,0.5,0.3,0.8c0,0.3-0.2,0.8-0.6,1.5c-0.4,0.8-0.6,1.3-0.6,1.5c0,1.2,0.7,4.4,2.2,9.5c0.5,1.7,1.3,4.4,2.3,7.9
		c0.4,2.5,1.1,5.3,2.1,8.3c0.2,0.5,0.6,1,1.2,1.7c0.7,0.7,1.2,1,1.6,1c0.4,0,0.9-0.2,1.5-0.7c0.6-0.5,0.9-0.9,1-1.3
		c4.2-15.9,6.2-24.7,6.2-26.3c0-0.3-0.3-0.7-0.8-1.4c-0.5-0.7-0.8-1.1-0.8-1.3c0-1.6,0.5-4,1.4-7.2c2.1-0.7,4.3-1.1,6.8-1.1
		c1.5,0,2.3,0.1,2.5,0.2l5.3,2.5c1.7,0.8,3.3,2,4.8,3.4c0.6,0.6,1.3,1.8,2.1,3.6C709.5,108.9,709.9,110.2,709.9,111.1z M667.4,100.7
		c-1-0.9-1.6-1.4-2-1.4c-2.3,0-5.1,1-8.5,3c-3.7,2.2-5.8,4.5-6.4,6.9c1.7-2.8,4.4-4.8,7.9-6C659.4,102.9,662.3,102.1,667.4,100.7z
		 M669.5,105.7c-0.3-0.4-0.7-1.1-1.3-2c-1.2,0.5-3.1,1.1-5.8,1.8c-2.7,0.7-4.7,1.3-6,2c-2.1,1-3.8,2.5-5,4.5c0.1,0,0.3,0.1,0.7,0.3
		c0.4,0.2,0.6,0.3,0.7,0.3c0.8-0.8,2-1.8,3.4-3c1-0.5,3-1.4,5.9-2.6c3.3-1.4,5.2-2.1,5.7-2.1c0.3,0,0.4,0.1,0.4,0.2
		c0,0.1-0.1,0.1-0.2,0.2l-6.6,2.6c-6.1,2.4-9.1,4.6-9.1,6.5c0,0.3,0.1,0.5,0.3,0.7l0.3,0.2c1.6-2.5,4-4.6,7.2-6.4
		c3.2-1.8,6.2-2.6,9-2.3c0-0.1,0.1-0.3,0.2-0.5C669.5,105.9,669.5,105.8,669.5,105.7z M668.9,103.3c-1.2-1.2-2-1.8-2.3-1.8
		c-0.8,0-3.4,0.8-7.8,2.3c-1.7,0.6-3.6,1.6-5.5,3.1c-0.3,0.2-0.6,0.6-1,1.4c-0.4,0.8-0.5,1.4-0.5,1.8c1.7-1.8,3.9-3.3,6.6-4.3
		c1.3-0.5,3.9-1.3,7.7-2.4C666.5,103.2,667.5,103.2,668.9,103.3z M675.1,134.7l-1.4-5.1c-1.1-4-2.7-9.8-4.7-17.5
		c-0.2-0.5-0.3-1.5-0.5-2.8c-0.1-0.2-0.3-0.2-0.5-0.1c-0.2-0.2-0.5-0.3-1-0.3c-1.5,0-2.6,0.4-3.1,1.2l-0.5-0.5c0-0.7-0.1-1-0.2-1
		c-1.4,0.3-3.1,1.2-5.1,2.8c-1.6,1.3-3.1,2.7-4.4,4.4c-0.4,0.4-0.5,0.6-0.5,0.7c0.3,0.6,1.4,2.7,3.3,6.2c1.5,4.7,2.8,8.3,3.7,10.8
		c0.1,0.1,1.1,2.6,3,7.5c0.4-1.1,2.2-2.7,5.5-5c1.4-1,2.4-1.5,2.9-1.5c0.4,0,0.9,0,1.7,0.1C674.1,134.7,674.7,134.7,675.1,134.7z
		 M666.7,131.8c-0.3,0.3-0.5,0.4-0.7,0.4c-0.2,0-0.3-0.1-0.5-0.3c-0.3-1.1-1.7-5.1-4.2-11.9c-1.7-4.8-2.6-7.4-2.6-7.7l0.8-0.9
		c0.7,0.4,1.2,1,1.5,1.9C661.9,116,663.8,122.1,666.7,131.8z M683.9,164.3c-0.2,0.8-0.7,1.6-1.6,2.3c-0.8,0.7-1.7,1.1-2.5,1.1
		c-1.8,0-3.5-1.3-5.2-3.8c-0.9-1.6-2.1-3.9-3.6-6.8c-1-2-3.1-6-6.3-12.2c0.8,1.1,1.9,2.7,3.2,5c4.8,11.2,8.7,16.9,11.7,16.9
		C680.9,166.8,682.4,166,683.9,164.3z M668,135.5l-0.7,0.8c-0.2,0-0.3-0.1-0.4-0.4c-0.1-0.3-0.2-0.4-0.3-0.5
		c-0.2,0.1-0.5,0.4-0.9,0.9c0-0.5-0.2-0.8-0.5-1.1c0.5-0.5,1.2-1,2.1-1.6c-0.1,0.2-0.1,0.3-0.1,0.5
		C667.2,134.3,667.5,134.8,668,135.5z M666.7,141.5c0,0.8-0.1,1.3-0.4,1.5c-0.2-0.1-0.4-0.2-0.8-0.5L666.7,141.5z M668,107.7
		l-1.2-0.4v0.5l1,0.3L668,107.7z M669.5,140.1c0,0.1-0.1,0.3-0.2,0.5c-0.1,0.3-0.2,0.4-0.2,0.5h-1.4c0-0.2,0.2-0.5,0.5-0.9
		c0.3-0.4,0.5-0.7,0.5-0.9L669.5,140.1z M683.3,153.6c-0.1,0.9-0.6,2.2-1.4,3.9c-1,2.1-2.1,3.2-3.2,3.2c-1,0-3-2.7-5.8-8.1
		c-2-3.7-3.6-7.3-5-10.6c0.3,0,0.8-0.2,1.8-0.7c0.9,1.6,2.3,4.5,4.2,8.8c1.7,3.8,3.4,6.8,5.1,9.1c0.7-0.1,1.5-1.1,2.5-3.2
		c-0.2,0-0.4,0-0.7-0.1c-0.3-0.1-0.5-0.1-0.7-0.1l-0.8,0.5c0.7-0.7,1.2-0.9,1.4-0.8l0.8-0.5c-0.2,0.2-0.3,0.3-0.3,0.5
		c0,0.1,0.1,0.2,0.2,0.3C681.8,155.6,682.4,154.8,683.3,153.6z M675.1,142.4l-0.4-0.8l-0.4,0.2l0.3,0.7H675.1z M675.4,141.3
		l-0.5-0.5l-0.3,0.3l0.5,0.5L675.4,141.3z M679.7,140.7c-0.7-0.7-1.2-1-1.5-1c-0.2,0.4-0.2,0.7-0.2,1.1c0,0.7,0.3,1.4,0.9,2
		C679.4,142.3,679.7,141.6,679.7,140.7z M681.3,140.9v-1.4h-0.5v1.4H681.3z M703.1,114c0-0.5-0.8-1.2-2.4-2.2
		c-1.3-0.8-2.2-1.2-2.5-1.3c0.2,0.2,0.2,0.3,0.2,0.4c0,0.1-0.1,0.2-0.2,0.2c-0.3,0-0.7-0.3-1.2-0.8c0.1-0.1,0.3-0.1,0.5-0.1
		c0.4,0.1,0.6,0.1,0.8,0.1c-1-0.2-2.6-0.5-4.9-1.1c0,0.4-0.3,1-0.8,1.8c-0.2-0.2-0.7-0.6-1.7-1.2c-1-0.6-1.5-1-1.5-1.2
		c0-0.4,0.2-0.8,0.6-1.2h-1.2l-7.2,27.9c2.1-0.2,4.3,0.6,6.8,2.3c2.2,1.5,3.8,3.3,5.1,5.3c1.8-6.3,3.3-11.4,4.5-15.3
		c0.2-0.6,1.3-3.3,3.2-8.2C702.4,116.1,703.1,114.2,703.1,114z M684.6,152.8l-0.5,0.2l-0.2-0.5l0.5-0.2L684.6,152.8z M688.8,133.9
		v2.1h-1.7l-0.7-0.7c0-0.1,0.1-0.3,0.3-0.7c0.2-0.4,0.3-0.6,0.3-0.7H688.8z M704.5,114.8c0.4-1.8-1.7-3.9-6.3-6.2
		c-4.2-2.2-7.4-3.2-9.7-3.2h-1.7c0.4,0.4,0.8,0.8,1.3,1.4c0.8,0.1,1.9,0.1,3.2,0.2c1.3,0.2,2.6,0.6,3.9,1.2c2.7,1.3,4.2,2.1,4.6,2.3
		C701.8,111.6,703.4,113.1,704.5,114.8z M695.6,98.1c-1.3,0.1-3,0.4-5.2,0.8c-0.2,0.4-0.7,0.9-1.6,1.7c0.1-0.2,0.1-0.5,0-0.8
		c-0.1-0.1-0.3-0.1-0.7-0.2c-0.2,1.1-0.5,2.6-1,4.5c1.5,0.3,3.6,0.7,6.1,1.3c0.3-1.3,0.8-2.8,1.8-4.7c0.1-0.2,0.2-0.4,0.2-0.6
		c0-0.2-0.1-0.4-0.2-0.7C695.4,98.7,695.6,98.2,695.6,98.1z M689.2,99.5V99h-1.1v0.5H689.2z M690.5,134.1c-0.4,0.3-0.6,0.4-0.8,0.4
		c-0.2-0.4-0.3-0.8-0.3-1.2C690.1,133.3,690.5,133.6,690.5,134.1z M697.2,112.8c0,0.2-0.2,0.5-0.5,1c-0.2,2.3-0.9,5.2-2.1,8.5
		c-1,2.8-2.1,5.6-3.1,8.4c0,0.1-0.2,0.3-0.6,0.5c-0.4,0.3-0.7,0.4-0.8,0.4l5.3-20.6c0.2,0,0.5,0,0.9-0.1c0.4-0.1,0.7-0.1,0.9-0.1
		V112.8z M693.8,108.7v-0.5l-1.4-0.4v0.5L693.8,108.7z M705.6,104.7v-1c-2.2-1-5.2-2.6-9.2-4.6c0.4,0.3,0.6,0.7,0.6,1.2
		c0,0.7-0.4,1.6-1.2,2.8l-1.8,2.6c3.8,1.7,6.5,3.1,8.2,4.1c0.3-0.5,1-1.4,2-2.8C705,105.6,705.6,104.8,705.6,104.7z M694.7,109.1
		v-0.5h-0.8v0.5H694.7z M695.5,102.7v-0.8h-0.5v0.8H695.5z M708.6,110.4c0-0.2-0.4-1-1.1-2.5c-0.7-1.4-1.1-2.4-1.2-2.8
		c-0.8,1.1-2.1,2.8-3.8,5.1c1.8,1.7,2.9,3,3.2,3.8C707.7,112.2,708.6,111,708.6,110.4z"/>
	<path class="st1" d="M714.5,144.9l0.2,1.7l-1.4,4.2l-0.9,1L714.5,144.9z M759.1,147.2c0,6.3-1.3,11.4-3.8,15.5
		c-0.5,0.8-2.5,2.6-6.1,5.4c-3.1,2.4-7,3.6-11.6,3.6c-6.8,0-12.6-2.6-17.3-7.9c-0.8-0.9-1.8-2.2-3.1-3.8c-0.4-0.2-0.8-0.5-1.4-1.2
		l0.6,0.6c0.1-2.2,0.6-4.4,1.7-6.7c1.3-2.7,2.9-4.1,4.9-4.1c0.3,0.1,1.2,0.3,2.7,0.7c-0.1-0.3-0.5-0.6-1.2-1
		c-0.7-0.4-1.2-0.6-1.5-0.6c-2,0-3.8,1-5.3,2.9c-1.5,2-2.3,4-2.3,6c0,0.7,0.1,1.3,0.3,1.8c-1.3-1.3-2.2-2.8-2.6-4.3
		c0.4,1.2,0.9,2.3,1.6,3.1c0.1-0.5,0.1-1.1,0.2-1.8v-0.3c0-0.4-0.5-1.2-1.5-2.5c-0.4,0-0.5,0.3-0.5,0.8v-0.2c0-0.4,0.2-0.9,0.6-1.8
		c0.2,0.4,0.7,1.2,1.5,2.5c0.7-1.3,1.8-3,3.5-5.1c-0.7-0.7-1.8-1.6-3.4-2.7v-1.4c2.7-0.9,4.9-1.3,6.5-1.3c1,0,2.1,0.8,3.3,2.3
		c1,1.3,1.5,2.2,1.5,2.8c0,0.1-0.1,0.3-0.2,0.7c-0.1,0.3-0.1,0.5,0,0.6v0.2c4.1,3.2,7.1,4.9,9.2,4.9c1.8,0,3.4-0.6,4.6-1.8
		c1.2-1.2,1.8-2.8,1.8-4.6c0-1-0.3-2.1-0.9-3.5c-0.7-1.6-1.5-2.4-2.3-2.4c-0.2,0-0.5,0.1-0.9,0.2c-0.4,0.1-0.7,0.2-0.9,0.2
		c-0.8,0-1.5-0.4-2-1.2c-0.3-0.7-0.6-1.5-1-2.2c-0.6-1-1.7-2.2-3.5-3.5c-1.8-1.4-2.9-2.5-3.4-3.2c-0.1-0.1-0.1-0.6-0.1-1.6
		c0-1.7,0.6-2.6,1.7-2.6c0.8,0,2.3,0.8,4.6,2.4c2.2,1.6,3.3,2.8,3.3,3.5l-0.3,0.5c0.1-0.4-0.1-0.7-0.3-0.9c-0.4,0.1-0.5,0.3-0.5,0.6
		c0.1,0.1,0.1,0.2,0.2,0.2c-0.6-0.4-1.5-0.9-2.8-1.5c0.2-0.2,0.3-0.4,0.3-0.6c-0.2-0.1-0.7-0.3-1.8-0.8c-0.8-0.4-1.4-0.6-1.6-0.6
		c-0.2,0-0.3,0.2-0.3,0.5c0,0.1-0.4,0.2-1.2,0.2c0.1-0.7,0.6-1.2,1.5-1.7c-0.6-0.7-1.1-1.1-1.6-1.4c-0.2,0.3-0.2,0.6-0.2,1
		c0,1.7,0.1,2.8,0.3,3.1c0.6,0.7,2.3,2.1,5.2,4.2c0.4,0.2,0.8,0.5,1.3,0.9c0.3,1.5,0.5,2.4,0.5,2.5c0.4,0.8,1.1,1.3,2.1,1.5
		c0.2,0,0.3-0.1,0.5-0.2c0-0.1-0.1-0.2-0.3-0.6c-0.2-0.3-0.3-0.6-0.3-0.9c0-2.5,0.9-4.8,2.8-7c1.8-2.2,4-3.3,6.4-3.3
		c0.3,0,0.6,0.1,1.1,0.2c0.5,0.1,0.8,0.2,1,0.2c0.2,0,0.3,0,0.4-0.2v-0.2c0-1.6-1.1-2.4-3.4-2.4c-0.7,0-1.7,0.3-3,1
		c-1.3,0.6-2.1,1.2-2.5,1.8c0.1-0.5,0.5-1.1,1.5-2c-0.5-0.3-2-0.8-4.5-1.6c-1.3-0.4-2.8-1.5-4.3-3.2h-0.5c-1.5,0-2.9,0.8-4.2,2.4
		c-1.3,1.6-1.9,3.2-1.9,4.8v0.3c0,2.2,0.7,3.3,2.2,3.4c-0.9-0.1-1.5-0.2-1.6-0.5c-0.5-0.8-1.3-1.5-2.5-2.3
		c-6.7-4.5-10.1-9.2-10.1-14.2c0-4.9,2-9.4,6-13.6c4-4.2,8.4-6.3,13.3-6.3c4.8,0,9.1,1.2,12.7,3.5c0.6,0.4,1.4,1.1,2.2,2
		c1,1.1,1.7,1.8,2.1,2.2c0.2,0.2,0.8,0.3,1.8,0.5c0.8,1.4,1.7,2.5,2.7,3.3c-0.1,0.2-0.1,0.4-0.1,0.6c0,0.4,0.3,0.8,1,1.2
		c0.3,1.5,0.5,2.6,0.5,3.2c0,1.9-1,3.7-3,5.5c-1.7,1.5-3.6,2.5-5.6,3.2c1.5-0.3,3.3-1.3,5.4-3.2c2.1-1.9,3.1-3.6,3.1-5.1
		c0-0.3-0.1-0.6-0.2-0.8c-1.1-0.8-2-1.2-2.7-1.2h-0.7c-2.4,0-4.6,0.9-6.6,2.6c-2,1.7-3,3.8-3,6.2c0,0.2,0,0.4,0.1,0.6
		c0.9,0.8,1.6,1.2,2.2,1.2c-1.2,0-2.3-0.9-3.4-2.8c-1.2-2.2-2.3-3.5-3.3-3.9c0.1-0.9-0.6-1.7-1.8-2.4c-1.3-0.7-2.4-1.1-3.3-1.1
		c-1.3,0-2.7,0.6-4.2,1.8c-1.4,1.2-2.2,2.4-2.2,3.8c0,1,0.3,2,0.8,2.9c0.6,1.1,1.4,1.7,2.2,1.7c0.2,0,0.5-0.1,0.8-0.2
		c0.4-0.1,0.6-0.2,0.8-0.2c0.9,0,2,0.8,3.2,2.4c0.7,0.4,1.8,0.8,3.5,1.4c1.7,0.6,2.8,0.8,3.3,0.8c0.3,0,0.6-0.1,1-0.4
		c0.4-0.3,0.6-0.4,0.7-0.4c0.3-0.1,1.2-0.2,2.8-0.2c1.1,0,2.3,0.7,3.4,2.2c0.3,0.4,0.4,1.3,0.5,2.8c3.5,2.1,5.9,4.3,7.2,6.6
		C758.4,140,759.1,143.2,759.1,147.2z M748.5,105.4c0-0.6-0.2-1-0.6-1.3c-4.1-3.2-9-4.8-14.7-4.8c-5.2,0-9.4,1.8-12.6,5.3
		c-1.4,1.6-2.8,3.8-4.1,6.4c-1.4,2.9-2.2,5.2-2.2,7.1c0,2.2,1.3,4.6,4,7.5c1.1,1.1,3.3,3.1,6.7,5.9c0-0.5,0.1-1.2,0.3-2.1
		c0.2-0.9,0.3-1.6,0.3-2.1l-1.5-3c-1-2-1.5-3.4-1.5-4.3c0-2.7,0.6-5,1.7-6.9c1.3-2.3,3.3-3.4,5.9-3.4c0.2,0,0.2,0.2,0.2,0.5
		c-1.9,0.7-3.5,1.7-4.7,3.2c-1.4,1.6-2.1,3.3-2.1,5.2c0,1.1,0.5,2.5,1.6,4.4c0.5,0.9,1.3,1.5,2.2,1.9c0.5-0.4,0.9-1,1.4-1.8
		l-0.8-0.7c-0.2,0.1-0.4,0.2-0.7,0.2h-0.5c-0.2-0.1-0.4-0.1-0.5-0.1c0.2-0.2,0.2-0.3,0.2-0.5h-0.1c-0.7-0.2-1-0.4-1.1-0.6l0.5-0.5
		l0.7,0.6c-0.7-1-1-2-1-2.9c0-1.8,0.9-3.5,2.6-5c1.7-1.5,3.5-2.2,5.4-2.2c0.7,0,2.4,0.7,5.3,2.2c0.5-1.6,1.8-3.3,4-5.3
		C745.1,106.3,746.9,105.4,748.5,105.4z M715.7,148.2l-0.4,0.8l-0.4-0.2l0.4-0.8L715.7,148.2z M724.5,147.3l-1.2-2
		c-0.6-0.7-1.3-1-2.1-1c-0.7,0-1.5,0.1-2.5,0.4l-2.5,0.7c1,0.5,1.6,0.8,1.6,0.8c0.1,0,0.1,0,0.1-0.1c0.3,0.1,0.4,0.3,0.4,0.6
		c0,0.3,0.1,0.5,0.2,0.5c0.5,0.3,0.9,0.4,1.2,0.4c0.3,0,0.7-0.2,1.3-0.5c0.6-0.3,1.1-0.5,1.3-0.5C723.2,146.8,723.9,147,724.5,147.3
		z M757.8,146.9c0-6.3-2.2-11-6.5-14.2c-2.4-1.7-4.2-2.6-5.5-2.6c-0.3,0-1.7,0.7-4.3,2c0.3,0.2,0.5,0.4,0.8,0.5h0.5
		c0.3,0,0.5-0.1,0.6-0.1c0.5,0,1.3,0.5,2.5,1.6c0.6,0,0.9,0.1,0.8,0.4c-0.4-0.1-0.9-0.2-1.6-0.3c2.2,2,4,4.3,5.5,6.9
		c1.8,3,2.8,5.7,2.8,8.2c0,2.1-0.3,3.2-1,3.4c0.1-1.6-0.2-3.9-0.7-7c-1.2-3.4-3.5-6.7-6.9-9.9h-0.7c-0.1-0.1-0.2-0.2-0.2-0.4
		c0-0.1,0-0.2,0.1-0.3c0.1-0.2,0.1-0.3,0.1-0.3l-0.7,0.9c0-0.4-0.4-1-1.2-1.8c-0.6-0.4-1.1-0.7-1.5-0.9c-0.5,0.7-1.2,1.7-1.9,3.2
		c-0.9,1.6-1.3,2.7-1.3,3.3c0,0.6,0.5,1.2,1.4,1.8c1.2,0.9,2,1.6,2.5,2.2c0.9,1.2,1.4,2.6,1.4,4.2c0,5.1-2.4,7.7-7.1,7.7
		c-2,0-4-0.5-6-1.5c-1.1-0.6-2.5-1.5-4.1-2.8c-1.3-1-2.2-1.5-2.7-1.5c-1.5,0-2.7,0.8-3.5,2.3c1.6,1.5,4.1,3.9,7.4,7l-1.1,0.2
		c-1-0.4-2.3-1.3-3.7-2.7c-1.4-1.4-2.5-2.7-3.1-3.7c-0.2,0.5-0.6,1.2-1.1,2.1h0.4c0.7,0,1.2,0.1,1.5,0.3c0.1,0.2,0.2,0.4,0.2,0.6
		v0.5c-0.1,0.2-0.1,0.4-0.1,0.5h-1.1c-0.4-0.4-0.7-0.5-1.1-0.5c-0.3,1-0.4,1.6-0.4,1.8c0,0.4,0.7,1.5,2,3.3c1.3,1.8,2.2,2.9,2.7,3.4
		c4.8,4.2,9.9,6.2,15.3,6.2c3.6,0,7-0.8,10.1-2.5c3.1-1.7,5.5-4.1,7.2-7.2c0.9-1.7,1.5-3.5,1.8-5.2
		C757.3,153.1,757.8,150.1,757.8,146.9z M721.4,157.6c-0.3-0.3-0.7-0.4-1.2-0.4c0.4-0.4,0.6-0.5,0.8-0.5
		C721.3,157.1,721.4,157.4,721.4,157.6z M727.4,123.2L727,124l-0.4-0.2l0.4-0.8L727.4,123.2z M728.7,159.3l-0.4,0.8l-0.4-0.2
		l0.4-0.8L728.7,159.3z M729.9,126.1l-1.1,1.1l-0.3-0.3l1.1-1.1L729.9,126.1z M732.6,129.5c-0.6-0.3-1.5-0.8-2.8-1.5
		c0.2-0.3,0.3-0.6,0.4-1.2C730.7,127.5,731.5,128.4,732.6,129.5z M734.7,133.2l-0.8-0.4l-0.2,0.4l0.8,0.4L734.7,133.2z M735.6,135.2
		c0,0.5-0.2,1-0.7,1.5c-0.1-0.4-0.4-0.9-0.9-1.7c0.2,0.2,0.5,0.2,0.9,0.2H735.6z M755.4,111.7c-1-1.3-1.9-1.9-2.8-1.9
		c0.3,0-0.6,0.2-2.6,0.5l-0.2-0.2c0.8-0.9,1.6-1.4,2.5-1.4c0.3,0,0.6,0.1,0.8,0.2v-1.5c-0.4-0.1-1-0.3-2-0.7s-1.6-0.6-1.9-0.6
		c-1.5,0-3.6,1.1-6.4,3.2c-0.6,0.5-1.3,1.3-2.2,2.5c-1,1.3-1.5,2.3-1.5,2.8v1.3c0.5,0.1,0.9,0.2,1.2,0.5c-0.1,0.1-0.2,0.3-0.2,0.5
		c0,0.2,0.1,0.4,0.2,0.6c0.6-0.6,1.1-1.4,1.5-2.6l0.9-2.9c-0.4,0.7-1,1.7-1.8,3.1l-0.2-1.4c0.3-1,1.5-2.3,3.7-3.8
		c2.2-1.5,3.8-2.2,4.9-2.2c0.2,0,0.6,0.4,1.2,1.1l-3.4,2.6c-1.2,1-2.2,2-2.9,3.1v-0.3c0-0.8,0.7-1.9,2.1-3.3c-1.3,0.8-2.4,2-3.3,3.6
		c-0.2,0.3-0.8,1.8-2,4.5c0.3,0.1,0.7,0.3,1.2,0.7c0.3-2.1,1.6-4,3.7-5.7c2.2-1.7,4.4-2.6,6.5-2.6
		C752.5,111.4,753.6,111.5,755.4,111.7z M753.2,115.8c0,0.8-0.9,1.8-2.7,3c-1.8,1.2-3.2,1.8-4.1,1.8c-1,0-1.5-0.5-1.5-1.4
		c0-1.2,0.9-2.4,2.6-3.5c0.9-0.6,2.2-1.4,3.9-2.5c0.4,0.2,0.9,0.4,1.8,0.7V115.8z M754.8,157.1l-0.4,0.8l-0.4-0.2l0.4-0.8
		L754.8,157.1z"/>
</g>
</svg>
