<svg id="Logo" xmlns="http://www.w3.org/2000/svg" viewBox="0 0 1491.31 422.12"><path d="M231.3,135.23c14.12-3.25,34.17-5.33,54.43-5.3,24.24,0,47.55,5.89,61.54,19.43,11.85,11,18.19,25.71,18.17,45.52a86.44,86.44,0,0,1-30.17,65.35c-19.42,16.34-47.89,24-76.15,23.94a153.19,153.19,0,0,1-25.59-2L214.24,382.88l-30.4,0Zm7.07,120.86a111.07,111.07,0,0,0,25,2.49c42.39.05,70.86-26.27,70.9-61.64,0-30-21.3-41.86-50-41.9-12.25,0-21.52,1.06-27.06,2.65Z" transform="translate(-183.84 -129.93)"/><path d="M400,303.59l-40,79.47-32.55,0,130.1-251.21,36.51.05,34.42,251.4-31.69,0-10-79.52Zm84.42-24.51-9.68-72.63c-1.37-13.1-3.2-31.54-4.39-46.26h-.87c-6.71,15-13,30.65-20.62,45.76l-37.55,73Z" transform="translate(-183.84 -129.93)"/><path d="M771.12,383.56l18.17-135.71c3.3-24,8.9-60.78,13.72-85h-1.2c-11.63,25.36-25.67,55.24-39.4,80.95l-74.8,138.13-23.64,0-18.4-135.42c-3.8-28.87-6.32-58.05-8-83.83h-.81c-5.33,23.22-13.23,61.16-19.27,85.1L583.17,383.33l-29.09,0L619.43,132l39.44.05,19.71,144.17c2.47,21.36,5.34,44.34,6,63h1.13c7.66-18.67,18.45-41.19,29.32-62.1l78-144.93,40.43.05L801.21,383.59Z" transform="translate(-183.84 -129.93)"/><path d="M996.14,265.68l-91.27-.12-17.46,91.67,102.83.13-5.14,26.46-133.69-.17,48.09-251.3,128,.16-5.22,26.43-96.94-.12L909.89,239.3l91.41.12Z" transform="translate(-183.84 -129.93)"/><path d="M1074.68,132.57l30.63,0L1082,254.87l1.58-.19c8.66-10.74,17.17-19.58,24.82-28.21l88.54-93.75,38.69,0-105.82,108,64.32,143.31-33.6,0L1105.6,260.55l-30,27.92-18.46,95.44-30.56,0Z" transform="translate(-183.84 -129.93)"/><path d="M1337.44,304.73l-40,79.47-32.55,0L1394.94,133l36.51,0,34.42,251.4-31.69,0-10-79.53Zm84.42-24.51-9.68-72.63c-1.38-13.1-3.2-31.54-4.39-46.26h-.88c-6.7,15-13,30.65-20.61,45.77l-37.55,73Z" transform="translate(-183.84 -129.93)"/><path d="M1545.38,136.67a271.67,271.67,0,0,1,53.87-5.14c25.88,0,44.58,5.28,57.94,17.31,11.57,9.46,18,22.83,18,39.16,0,31.76-25.69,55.27-54.18,62.63v1c22.68,6.65,41.38,25.57,41.15,55.84,0,25.74-13.69,45.93-30.14,58.16-20,14.93-47.66,20.6-81.35,20.56-21.58,0-40.32-1.38-52.05-3.64Zm-12.14,222.8a169.35,169.35,0,0,0,25.41,1.66c36.6.24,70.94-15,71-55.23,0-29.5-24.84-42.48-53-42.51l-25.16,0Zm23.16-119.64,23,0c36,0,63.81-18.61,63.85-49.17,0-24.21-18.22-34.57-45.54-34.6-11.35,0-20.86.79-25.69,2.28Z" transform="translate(-183.84 -129.93)"/><path d="M191.28,436.49A198.91,198.91,0,0,1,222.94,434c21.32,0,36.59,5.05,46.67,14.47,10.3,9.33,16.31,22.68,16.31,41.24,0,18.9-5.9,34.19-16.57,44.84-10.88,10.73-28.69,16.61-51,16.61a239.68,239.68,0,0,1-27.07-1.28Zm14.95,102a106.2,106.2,0,0,0,15,.7c31.89.07,49.06-17.7,49.06-48.86.18-27.23-15.21-44.4-46.59-44.4a89.25,89.25,0,0,0-17.43,1.51Z" transform="translate(-183.84 -129.93)"/><path d="M321.81,444.09c0,5.12-3.59,9.35-9.56,9.35-5.44,0-9.09-4.23-9.08-9.35a9.14,9.14,0,0,1,9.35-9.36C318.13,434.73,321.77,438.84,321.81,444.09ZM305,550.17v-82.7h15v82.7Z" transform="translate(-183.84 -129.93)"/><path d="M345,489.81c0-8.63-.28-15.49-.68-22.34H357.6l.83,13.6h.42c4.06-7.77,13.68-15.48,27.33-15.48,11.35,0,29.13,6.83,29.13,35.24v49.34h-15V502.49c0-13.37-5-24.57-19.1-24.57-9.87,0-17.56,7-20.26,15.44a23.51,23.51,0,0,0-1,7v49.84H345Z" transform="translate(-183.84 -129.93)"/><path d="M481.87,467.47l16.21,46.37c2.79,7.66,4.93,14.49,6.77,21.36h.45c1.89-6.87,4.26-13.75,6.92-21.36l16.17-46.37h15.72l-32.52,82.7H497.25l-31.48-82.7Z" transform="translate(-183.84 -129.93)"/><path d="M566.13,467.47l16.21,46.37c2.78,7.66,4.92,14.49,6.77,21.36h.45c1.89-6.87,4.26-13.75,6.91-21.36l16.18-46.37h15.71l-32.52,82.7H581.5L550,467.47Z" transform="translate(-183.84 -129.93)"/><path d="M639.39,534.86a41,41,0,0,0,19.92,5.89c11,0,16.07-5.4,16.07-12.32,0-7.23-4.38-11-15.36-15.14-14.94-5.41-22-13.54-22-23.45,0-13.32,10.82-24.25,28.59-24.25,8.42,0,15.66,2.28,20.25,5.09l-3.74,10.93a32.38,32.38,0,0,0-16.95-4.87c-8.87,0-13.69,5.12-13.69,11.35,0,6.85,4.86,9.9,15.69,14.11,14.25,5.31,21.65,12.5,21.69,24.85C689.89,541.7,678.5,552,659,552c-9.05,0-17.41-2.35-23.23-5.77Z" transform="translate(-183.84 -129.93)"/><path d="M762.22,444.09c0,5.12-3.58,9.35-9.56,9.35-5.44,0-9.08-4.23-9.07-9.35a9.14,9.14,0,0,1,9.35-9.36C758.55,434.73,762.19,438.84,762.22,444.09ZM745.43,550.17v-82.7h15v82.7Z" transform="translate(-183.84 -129.93)"/><path d="M785.42,489.81c0-8.63-.28-15.49-.68-22.34H798l.83,13.6h.42c4.06-7.77,13.68-15.48,27.33-15.48,11.35,0,29.13,6.83,29.13,35.24v49.34h-15V502.49c0-13.37-5-24.57-19.11-24.57-9.86,0-17.56,7-20.25,15.44a23.51,23.51,0,0,0-1,7v49.84h-15Z" transform="translate(-183.84 -129.93)"/><path d="M878.14,534.86a41,41,0,0,0,19.93,5.89c11,0,16.06-5.4,16.06-12.32,0-7.23-4.37-11-15.36-15.14-14.93-5.41-22-13.54-22-23.45,0-13.32,10.82-24.25,28.6-24.25,8.41,0,15.65,2.28,20.24,5.09l-3.73,10.93a32.45,32.45,0,0,0-17-4.87c-8.87,0-13.69,5.12-13.69,11.35,0,6.85,4.86,9.9,15.69,14.11,14.25,5.31,21.65,12.5,21.69,24.85,0,14.65-11.38,24.92-30.91,24.92-9.05,0-17.42-2.35-23.23-5.77Z" transform="translate(-183.84 -129.93)"/><path d="M966,443.66v23.81h21.6v11.39H966v44.57c0,10.31,3,16.13,11.37,16.13a29.86,29.86,0,0,0,8.71-1.09l.69,11.43A38.36,38.36,0,0,1,973.33,552c-6.91,0-12.65-2.28-16.23-6.37C953,541,951.27,533.74,951.27,524V478.86H938.46V467.47h12.81V447.55Z" transform="translate(-183.84 -129.93)"/><path d="M1050.35,550.17,1049,539.73h-.44c-4.54,6.45-13.46,12.32-25.29,12.32-16.7,0-25.25-11.86-25.25-23.73,0-20,17.74-31,49.67-30.81v-1.75c0-6.72-1.88-19.17-18.81-19.08a40.2,40.2,0,0,0-21.54,6.16l-3.41-10c6.85-4.42,16.85-7.25,27.28-7.25,25.27,0,31.43,17.28,31.43,33.85v30.94a129,129,0,0,0,1.25,19.79ZM1048,507.94c-16.27-.35-34.89,2.58-34.89,18.57,0,9.87,6.49,14.4,14,14.4,10.89,0,17.75-6.86,20.15-13.85a15.66,15.66,0,0,0,.71-4.73Z" transform="translate(-183.84 -129.93)"/><path d="M1086.9,428.76h14.95V550.17H1086.9Z" transform="translate(-183.84 -129.93)"/><path d="M1127.23,428.76h15V550.17h-15Z" transform="translate(-183.84 -129.93)"/><path d="M1213.39,550.17l-1.32-10.44h-.45c-4.54,6.45-13.45,12.32-25.29,12.32-16.7,0-25.25-11.86-25.25-23.73,0-20,17.75-31,49.68-30.81v-1.75c0-6.72-1.89-19.17-18.82-19.08a40.2,40.2,0,0,0-21.54,6.16l-3.41-10c6.85-4.42,16.85-7.25,27.28-7.25,25.27,0,31.43,17.28,31.43,33.85v30.94a129,129,0,0,0,1.25,19.79Zm-2.34-42.23c-16.26-.35-34.89,2.58-34.89,18.57,0,9.87,6.49,14.4,14,14.4,10.88,0,17.74-6.86,20.14-13.85a15.66,15.66,0,0,0,.71-4.73Z" transform="translate(-183.84 -129.93)"/><path d="M1267.3,443.66v23.81h21.6v11.39h-21.6v44.57c0,10.31,3,16.13,11.37,16.13a29.92,29.92,0,0,0,8.71-1.09l.68,11.43a38.32,38.32,0,0,1-13.43,2.07c-6.91,0-12.65-2.28-16.22-6.37-4.14-4.56-5.84-11.86-5.84-21.57V478.86h-12.8V467.47h12.8V447.55Z" transform="translate(-183.84 -129.93)"/><path d="M1379.62,508c0,30.62-21.24,44-41.11,44-22.42,0-39.73-16.35-39.73-42.6,0-27.68,18.18-43.86,41-43.86C1363.59,465.59,1379.62,482.84,1379.62,508Zm-65.54,1c0,18.14,10.38,31.79,25.05,31.79,14.42,0,25.19-13.47,25.19-32.24,0-14-7-31.68-24.92-31.68C1321.75,476.86,1314.08,493.31,1314.08,509Zm.68-65a8.66,8.66,0,0,1,8.72-8.71c4.69,0,8.27,3.8,8.27,8.71a8.41,8.41,0,0,1-8.36,8.72A8.55,8.55,0,0,1,1314.76,444Zm31.71,0a8.59,8.59,0,0,1,8.65-8.71,8.72,8.72,0,0,1-.09,17.43A8.49,8.49,0,0,1,1346.47,444Z" transform="translate(-183.84 -129.93)"/><path d="M1398.6,493.23c0-9.77-.25-18.09-.68-25.76h13.17l.57,16.22h.54c3.86-11.09,13-18.1,23-18.1a17.25,17.25,0,0,1,4.19.42v14.15a24.11,24.11,0,0,0-5.12-.44c-10.59,0-18.08,8-20.12,19.24a39.75,39.75,0,0,0-.61,7v44.18h-15Z" transform="translate(-183.84 -129.93)"/></svg>