<svg id="Lager_1" data-name="Lager 1" xmlns="http://www.w3.org/2000/svg" viewBox="0 0 1200 630"><defs><style>.cls-1{fill:#222429;}.cls-2{fill:#b9b9b9;}</style></defs><rect class="cls-1" width="1200" height="630"/><path class="cls-2" d="M185.82,212.29V417.83H139l-27.8-93.44v93.44H66.48V212.29h44.69l30,92.55V212.29Z"/><path class="cls-2" d="M207.27,212.29h89.12v41.13H260.72v39h33.39v39.1H260.72v45.2H300v41.13H207.27Z"/><path class="cls-2" d="M423.66,212.29l-18.79,90.9,28.31,114.64H383.67q-8.88-30.74-16.25-74.9-2,19.56-5.63,41.38l-5,33.52H304.71l19.42-114.64-19.42-90.9h51.67q1.41,8.49,5.57,28.3,3.36,15.1,5.47,27.81l11.43-56.11Z"/><path class="cls-2" d="M539.6,212.29l30.57,205.54H515.54l-2.86-36.95H493.56l-3.22,36.95H435.09l27.26-205.54ZM511.28,344.45q-4.06-34.92-8.15-86.33-8.16,59-10.25,86.33Z"/><path class="cls-2" d="M625.07,212.29h53.32q25.26,0,38.28,3.93a38,38,0,0,1,21,15.93q8,12,8,38.63,0,18-5.65,25.12t-22.28,10.91q18.54,4.19,25.14,13.91t6.6,29.78v19.06q0,20.83-4.76,30.87a25.68,25.68,0,0,1-15.17,13.71q-10.41,3.69-42.66,3.69H625.07Zm53.45,35.17v45.7c2.29-.08,4.06-.13,5.33-.13q7.88,0,10-3.87T696,267q0-9.64-1.78-13.52c-1.18-2.58-2.73-4.21-4.63-4.89S684,247.54,678.52,247.46Zm0,77.69v57.51q11.29-.37,14.41-3.55T696,363.49V344.32q0-13.2-2.79-16T678.52,325.15Z"/><path class="cls-2" d="M874.5,249.36,859.85,371.24q-3.48,29-5.83,39.48a42.24,42.24,0,0,1-7.8,17.39,31.51,31.51,0,0,1-15.17,10.09q-9.72,3.24-31,3.24h-31.1V414.53q12,0,15.39-1.21t3.43-5.39q0-2-3.18-17.65L756.47,249.36H803l16.85,113.75,8.22-113.75Z"/><path class="cls-2" d="M1000.22,249.36V379.11q0,26.28-1.21,34t-8.57,16.25q-7.35,8.56-20.5,13.07t-33.07,4.51q-24.5,0-39.36-8.32t-15.36-32.69h49.77q0,11.17,8.12,11.18,5.85,0,7.75-3.44t1.9-14.35V386.57a48.74,48.74,0,0,1-13.9,9,39.17,39.17,0,0,1-15.3,3.06q-13.83,0-22.78-5.59a28.56,28.56,0,0,1-12.26-14.66q-3.3-9.07-3.3-25.84V291.38q0-24,8.64-34.53t26.28-10.54a38.94,38.94,0,0,1,17.58,3.95,41.63,41.63,0,0,1,14.15,11.83l3.69-12.73ZM948.8,294.05q0-11.55-1.33-14.73t-5.9-3.17a6.47,6.47,0,0,0-6.29,3.62q-1.83,3.62-1.84,14.28v56.62q0,11.29,1.4,14.66c.93,2.25,2.87,3.37,5.84,3.37q5.07,0,6.6-4.07t1.52-18.4Z"/><path class="cls-2" d="M1135,249.36V379.11q0,26.28-1.2,34t-8.57,16.25q-7.37,8.56-20.5,13.07t-33.08,4.51q-24.5,0-39.35-8.32T1017,405.89h49.76q0,11.17,8.13,11.18,5.84,0,7.74-3.44t1.91-14.35V386.57a48.87,48.87,0,0,1-13.9,9,39.21,39.21,0,0,1-15.3,3.06q-13.85,0-22.79-5.59a28.54,28.54,0,0,1-12.25-14.66q-3.3-9.07-3.3-25.84V291.38q0-24,8.63-34.53t26.28-10.54a38.94,38.94,0,0,1,17.58,3.95,41.75,41.75,0,0,1,14.16,11.83l3.68-12.73Zm-51.41,44.69q0-11.55-1.34-14.73t-5.9-3.17a6.46,6.46,0,0,0-6.28,3.62q-1.84,3.62-1.84,14.28v56.62q0,11.29,1.39,14.66t5.84,3.37q5.09,0,6.6-4.07t1.53-18.4Z"/></svg>